<svg id="Layer_1" data-name="Layer 1" xmlns="http://www.w3.org/2000/svg" xmlns:xlink="http://www.w3.org/1999/xlink" viewBox="0 0 2203.74 1276.02"><defs><style>.cls-1,.cls-2{fill:#fff;}.cls-10,.cls-2,.cls-26,.cls-27,.cls-28,.cls-29,.cls-30,.cls-4,.cls-40,.cls-41,.cls-42,.cls-43,.cls-44,.cls-46,.cls-47,.cls-49,.cls-50,.cls-51,.cls-52,.cls-53,.cls-54,.cls-55,.cls-60,.cls-62,.cls-63,.cls-7{fill-rule:evenodd;}.cls-3{fill:#e5e5e5;}.cls-4,.cls-5{fill:#dde3e9;}.cls-6{fill:#163038;fill-opacity:0.1;}.cls-7{fill:#155896;}.cls-8{fill:#2f3676;stroke:#f2994a;stroke-width:6.6px;}.cls-41,.cls-57,.cls-9{fill:#9aee58;}.cls-10,.cls-61{fill:#f2f2f2;}.cls-11{fill:#2f3235;}.cls-12{fill:url(#linear-gradient);}.cls-13{opacity:0.95;}.cls-13,.cls-14,.cls-40,.cls-64{isolation:isolate;}.cls-14{opacity:0.9;fill:url(#linear-gradient-2);}.cls-15{fill:#56585a;}.cls-16{fill:#929393;}.cls-17{fill:url(#linear-gradient-3);}.cls-18,.cls-34,.cls-35{fill:none;}.cls-18{stroke:#e9e9ea;}.cls-18,.cls-34,.cls-35,.cls-57{stroke-width:1.21px;}.cls-19{mask:url(#mask);}.cls-20,.cls-27{fill:#e9e9ea;}.cls-21{fill:url(#linear-gradient-4);}.cls-22{fill:#8b8d8f;}.cls-23{fill:url(#linear-gradient-5);}.cls-24{fill:#dadada;}.cls-25{fill:url(#linear-gradient-6);}.cls-26{fill:#bbbec0;}.cls-28{fill:#53c22b;}.cls-29{fill:#e6c02a;}.cls-30{fill:#ff5a52;}.cls-31{fill:url(#linear-gradient-7);}.cls-32{fill:#75787a;}.cls-33{fill:url(#linear-gradient-8);}.cls-34{stroke:url(#linear-gradient-9);}.cls-35{stroke:url(#linear-gradient-10);}.cls-36{fill:#333;}.cls-37{fill:#757779;}.cls-38{fill:url(#linear-gradient-11);}.cls-39{fill:#817d7d;}.cls-40{fill:#c1dee2;opacity:0.5;}.cls-42{fill:#257618;}.cls-43{fill:#b28b67;}.cls-44{fill:#5c63ab;}.cls-45{mask:url(#mask-2);}.cls-46{fill-opacity:0.2;}.cls-47{fill:#ff9b21;}.cls-48{mask:url(#mask-3);}.cls-49{fill:#997659;}.cls-50,.cls-56{fill:#3f3d95;}.cls-51{fill:#69ccc0;}.cls-52{fill:#69a1ac;}.cls-53{fill:#89c5cc;}.cls-54{fill:#2026a2;}.cls-55{fill:#1f28cf;}.cls-57{stroke:#fff;}.cls-58{fill:#0f0e0e;}.cls-59{opacity:0.2;}.cls-60{fill:#2b44ff;}.cls-62{fill:#c5cfd6;}.cls-63{fill:#afb9c5;}.cls-64{stroke:#000;stroke-width:10px;opacity:0.1;}</style><linearGradient id="linear-gradient" x1="1423.53" y1="903.59" x2="1423.53" y2="877.16" gradientTransform="matrix(1, 0, 0, -1, 0, 927.75)" gradientUnits="userSpaceOnUse"><stop offset="0" stop-color="#3a3e3f"/><stop offset="1" stop-color="#2f3234"/></linearGradient><linearGradient id="linear-gradient-2" x1="1847.64" y1="895.01" x2="1847.64" y2="877.16" gradientTransform="matrix(1, 0, 0, -1, 0, 927.75)" gradientUnits="userSpaceOnUse"><stop offset="0" stop-color="#28292a"/><stop offset="1" stop-color="#252526"/></linearGradient><linearGradient id="linear-gradient-3" x1="1821.58" y1="897.87" x2="1821.58" y2="882.16" gradientTransform="matrix(1, 0, 0, -1, 0, 927.75)" gradientUnits="userSpaceOnUse"><stop offset="0" stop-color="#65686a"/><stop offset="1" stop-color="#5f6263"/></linearGradient><mask id="mask" x="1818.91" y="32.5" width="8.06" height="8.32" maskUnits="userSpaceOnUse"><g id="path-25-inside-1"><path class="cls-1" d="M1824.41,33.45h-3a2.76,2.76,0,0,0-.89.07.94.94,0,0,0-.51.51,2,2,0,0,0-.09.85h.68v-.72h4.74v5h-.67v.72a2.49,2.49,0,0,0,.65,0,1,1,0,0,0,.66-.63,2.49,2.49,0,0,0,0-.64V35a2.17,2.17,0,0,0-.11-1,.92.92,0,0,0-.43-.42A2.57,2.57,0,0,0,1824.41,33.45Z"/></g></mask><linearGradient id="linear-gradient-4" x1="1791.11" y1="897.87" x2="1791.11" y2="882.16" xlink:href="#linear-gradient-3"/><linearGradient id="linear-gradient-5" x1="1423.87" y1="897.87" x2="1423.87" y2="882.16" xlink:href="#linear-gradient-3"/><linearGradient id="linear-gradient-6" x1="1096.57" y1="897.87" x2="1096.57" y2="882.16" xlink:href="#linear-gradient-3"/><linearGradient id="linear-gradient-7" x1="1068.81" y1="897.87" x2="1068.81" y2="882.16" xlink:href="#linear-gradient-3"/><linearGradient id="linear-gradient-8" x1="1051.21" y1="897.87" x2="1051.21" y2="882.16" xlink:href="#linear-gradient-3"/><linearGradient id="linear-gradient-9" x1="1423.19" y1="904.67" x2="1423.19" y2="361.09" gradientTransform="matrix(1, 0, 0, -1, 0, 927.75)" gradientUnits="userSpaceOnUse"><stop offset="0" stop-color="#141414"/><stop offset="1"/></linearGradient><linearGradient id="linear-gradient-10" x1="1423.19" y1="903.72" x2="1423.19" y2="362.03" gradientTransform="matrix(1, 0, 0, -1, 0, 927.75)" gradientUnits="userSpaceOnUse"><stop offset="0" stop-color="#808383"/><stop offset="1" stop-color="#585b5d"/></linearGradient><linearGradient id="linear-gradient-11" x1="1856.1" y1="894.3" x2="1856.1" y2="877.16" gradientTransform="matrix(1, 0, 0, -1, 0, 927.75)" gradientUnits="userSpaceOnUse"><stop offset="0" stop-color="#525354"/><stop offset="1" stop-color="#4e4f50"/></linearGradient><mask id="mask-2" x="651.25" y="252.66" width="81.5" height="68.99" maskUnits="userSpaceOnUse"><g id="mask0"><path class="cls-2" d="M732.65,268.75c-.28-1.72.28-2.56-6.89-7.41s-18.75-10.56-30.41-8.07c-15.14,3.23-21.15,12.86-27,17.54-5.26,4.22-10.54,4.71-13.67,9.95s-4.79,20.3-2.07,26.29c3.75,8.27,11.15,10.49,16.56,12.87,9.26,4.08,22.36-.23,22.68-.94,2.45-5.53,15.66-21.11,23.6-27.66C721.31,286.5,734,276.83,732.65,268.75Z"/></g></mask><mask id="mask-3" x="668.08" y="253.28" width="63.03" height="62.71" maskUnits="userSpaceOnUse"><g id="mask1"><path class="cls-2" d="M729.64,268.3c.52-1.46,4.1-6-2.27-10.29-1.15-.78-3,0-4.68-.49-1.23-.37-1.65-2-3.06-2.32s-3.07,1.06-4.73.94c-1-.07-2.58-1.6-3.64-1.68-1.89-.15-3.6,1.57-5.45,1.68-1.07.07-2.31-1.59-3.37-1.68-2.58-.21-4.93.95-7.21,1.3-2.1.32-3.07,4.47-4.62,5.45-4.85,3.07-8.64,3.93-12.58,7.09-4.68,3.75-5.57,6.54-7.51,9s-3.13,11.31-2,17c.66,3.33,2.4,12.42,6.28,15.94,5.31,4.82,16.12,6.25,17.08,5.61,4.44-3,14.4-19.45,21.46-25.27C718.53,286.3,726.39,277.34,729.64,268.3Z"/></g></mask></defs><title>s</title><rect class="cls-3" width="2203.74" height="1276.02"/><path class="cls-4" d="M697.74,485.71c11,0,19.86-7.9,19.86-17.64s-8.89-17.64-19.86-17.64-19.86,7.9-19.86,17.64S686.77,485.71,697.74,485.71Z"/><path class="cls-5" d="M670.14,490.12h55.2a3.36,3.36,0,0,1,3.43,3.3h0a3.37,3.37,0,0,1-3.43,3.31h-55.2a3.37,3.37,0,0,1-3.43-3.31h0A3.37,3.37,0,0,1,670.14,490.12Z"/><path class="cls-5" d="M680.07,501.14h35.34a3.37,3.37,0,0,1,3.43,3.31h0a3.37,3.37,0,0,1-3.43,3.31H680.07a3.37,3.37,0,0,1-3.43-3.31h0A3.37,3.37,0,0,1,680.07,501.14Z"/><rect class="cls-6" x="2.36" y="614.18" width="522.06" height="250.83"/><path class="cls-7" d="M457.69,865V667.24H69.09V865H2.36V614.18H524.42V865Z"/><path class="cls-8" d="M812,25.43h0c33.6,0,60.84,26.28,60.84,58.69v5.15c0,32.41-27.24,58.68-60.84,58.68h0c-33.61,0-60.85-26.27-60.85-58.68V84.12C751.1,51.71,778.34,25.43,812,25.43Z"/><ellipse class="cls-1" cx="811.94" cy="86.18" rx="3.2" ry="3.09"/><ellipse class="cls-1" cx="762.85" cy="88.24" rx="2.13" ry="2.06"/><ellipse class="cls-1" cx="810.87" cy="33.67" rx="2.13" ry="2.06"/><ellipse class="cls-1" cx="814.12" cy="134.41" rx="1.96" ry="1.89"/><ellipse class="cls-1" cx="863.42" cy="86.86" rx="1.96" ry="1.89"/><ellipse class="cls-1" cx="810.19" cy="89.02" rx="2.13" ry="2.06"/><path class="cls-1" d="M823.35,72.88l-.6-.5h0ZM834.83,61a.79.79,0,0,0-.86-.72l-7.18.49a.78.78,0,0,0-.75.82.79.79,0,0,0,.85.72l6.39-.43.45,6.16a.8.8,0,0,0,1.6-.11ZM811.16,88.3,824,73.38l-1.23-1L809.93,87.32ZM824,73.39l10.67-11.84-1.21-1L822.75,72.38Z"/><path class="cls-1" d="M835.06,107.72a.57.57,0,0,0,.56-.61l-.34-5.27a.62.62,0,0,0-.64-.56.58.58,0,0,0-.57.61l.31,4.69-4.83.21a.58.58,0,0,0-.56.61.62.62,0,0,0,.64.56ZM811.08,87l23.54,20.53.8-.86L811.88,86.18Z"/><rect class="cls-9" x="386.06" y="579.16" width="31.4" height="21.77"/><path class="cls-10" d="M544,786.91c49.28-109.07,467.63-19,747-36.19s618-157.47,829.64-65.13-32,268.28-532.44,280.11S494.76,896,544,786.91Z"/><path class="cls-11" d="M990,51.31h866.49V558c0,2.65,0,4-.53,5a4.89,4.89,0,0,1-2.15,2.07c-1,.51-2.42.51-5.17.51H997.79c-2.74,0-4.12,0-5.16-.51a4.84,4.84,0,0,1-2.15-2.07c-.53-1-.53-2.34-.53-5Z"/><path class="cls-12" d="M990.62,30.22c0-2.12,0-3.18.43-4a3.82,3.82,0,0,1,1.72-1.65c.84-.42,1.94-.42,4.13-.42h853.26c2.2,0,3.3,0,4.14.42a3.87,3.87,0,0,1,1.72,1.65c.42.81.42,1.87.42,4V50.59H990.62Z"/><rect class="cls-13" x="990.62" y="50.59" width="865.14" height="0.71"/><rect class="cls-14" x="1839.52" y="32.74" width="16.25" height="17.86"/><path class="cls-15" d="M1839.52,32.74V50.59h.67V33.45h15.57v-.71Z"/><rect class="cls-16" x="1847.64" y="38.45" width="0.68" height="7.86"/><rect class="cls-16" x="1844.26" y="42.02" width="7.45" height="0.71"/><path class="cls-17" d="M1812,29.88h19.16a2.89,2.89,0,0,1,2.94,2.84v10a2.89,2.89,0,0,1-2.94,2.84H1812a2.89,2.89,0,0,1-2.94-2.84v-10A2.89,2.89,0,0,1,1812,29.88Z"/><path class="cls-18" d="M1818.84,36.07H1823a.48.48,0,0,1,.49.47v4.53a.48.48,0,0,1-.49.48h-4.13a.48.48,0,0,1-.49-.48V36.54A.48.48,0,0,1,1818.84,36.07Z"/><g class="cls-19"><path class="cls-20" d="M1824.63,39.88h-1v.94h1Zm0-.72v-.94h-1v.94Zm.67,0v1h1v-1Zm0-5h1v-.94h-1Zm-4.74,0v-.94h-1v.94Zm0,.72v.94h1v-.94Zm-.68,0h-1v.94h1Zm6.06,4.33-.94-.28Zm-.66.63-.28-.91h0Zm.16-6.29-.44.85Zm.43.42-.87.43h0ZM1820,34l.9.37Zm.51-.51.39.88Zm.89.88h3V32.5h-3ZM1825,35v3.61h2V35Zm.61,4.92v-.72h-2v.72Zm-1,.23h.67V38.22h-.67Zm1.65-1v-5h-2v5Zm-1-5.94h-4.74v1.89h4.74Zm-5.71.94v.72h2v-.72Zm1-.23h-.68v1.89h.68Zm4.44,4.64a2.94,2.94,0,0,1,0,.35c0,.06,0,0,0,0l1.87.56a3,3,0,0,0,.09-.92Zm-.37,2.25a3.1,3.1,0,0,0,.94-.08l-.57-1.81h-.37Zm.37-1.89h0l.57,1.81a1.9,1.9,0,0,0,1.3-1.25Zm-.59-4.53h.57c.1,0,.08,0,0,0l.89-1.69a2.12,2.12,0,0,0-.75-.19c-.22,0-.47,0-.73,0ZM1827,35c0-.25,0-.49,0-.69a2.17,2.17,0,0,0-.2-.73l-1.75.86c0-.06,0-.08,0,0s0,.26,0,.54Zm-2-.56h0l1.75-.86a1.92,1.92,0,0,0-.86-.83Zm-4.13.48c0-.24,0-.37,0-.46s0-.07,0,0l-1.81-.74a2,2,0,0,0-.15.63v.59Zm.5-2.38h-.62a2.54,2.54,0,0,0-.65.14l.77,1.75s-.07,0,0,0h.48Zm-.5,1.9-.77-1.75a1.94,1.94,0,0,0-1,1Z"/></g><path class="cls-21" d="M1781.53,29.88h19.16a2.9,2.9,0,0,1,3,2.84v10a2.9,2.9,0,0,1-3,2.84h-19.16a2.89,2.89,0,0,1-2.94-2.84v-10A2.89,2.89,0,0,1,1781.53,29.88Z"/><path class="cls-22" d="M1788.07,42h6.09V36.31h-2v-.72h2a.7.7,0,0,1,.69.71V42a.7.7,0,0,1-.68.72h-6.09a.7.7,0,0,1-.68-.72V36.3a.71.71,0,0,1,.69-.71h2v.72h-2Z"/><path class="cls-22" d="M1791.11,33l-1.72,1.84a.31.31,0,0,1-.45,0,.34.34,0,0,1,0-.48l1.94-2.08a.31.31,0,0,1,.45,0l1.94,2.08a.34.34,0,0,1,0,.48.3.3,0,0,1-.44,0Z"/><path class="cls-22" d="M1790.78,32.74h.67v6.42h-.67Z"/><path class="cls-23" d="M1228.1,29.88h391.55a3.85,3.85,0,0,1,3.92,3.78v8.15a3.85,3.85,0,0,1-3.92,3.78H1228.1a3.86,3.86,0,0,1-3.93-3.78V33.66A3.86,3.86,0,0,1,1228.1,29.88Z"/><path class="cls-24" d="M1615.11,34.16v.72a3.22,3.22,0,1,0,3,3.21h.68a3.73,3.73,0,1,1-3.72-3.93Z"/><path class="cls-24" d="M1617.47,34.52l-2.7,1.79V32.74Z"/><path class="cls-25" d="M1087,29.88h19.16a2.89,2.89,0,0,1,2.94,2.84v10a2.89,2.89,0,0,1-2.94,2.84H1087a2.9,2.9,0,0,1-3-2.84v-10A2.9,2.9,0,0,1,1087,29.88Z"/><path class="cls-26" d="M1092.84,35.59v-.71h1.36v.71Zm0,1.43v-.71h1.39V37Zm0,.72v.71h1.39v-.71Z"/><path class="cls-27" d="M1092.17,33.45H1101a.7.7,0,0,1,.68.72V41.3a.7.7,0,0,1-.68.72h-8.79a.7.7,0,0,1-.68-.72V34.17A.7.7,0,0,1,1092.17,33.45Zm3.38,7.86H1101V34.17h-5.42Zm-.68-7.15v7.15c-1.51,0-2.71,0-2.71,0V34.16Z"/><path class="cls-28" d="M1029.88,42a4.29,4.29,0,1,0-4.05-4.28A4.18,4.18,0,0,0,1029.88,42Z"/><path class="cls-29" d="M1016.35,42a4.29,4.29,0,1,0-4.07-4.28A4.18,4.18,0,0,0,1016.35,42Z"/><path class="cls-30" d="M1002.81,42a4.29,4.29,0,1,0-4.06-4.28A4.18,4.18,0,0,0,1002.81,42Z"/><path class="cls-31" d="M1063.29,29.88h11a2.89,2.89,0,0,1,2.94,2.84v10a2.89,2.89,0,0,1-2.94,2.84h-11a2.89,2.89,0,0,1-2.94-2.84v-10A2.89,2.89,0,0,1,1063.29,29.88Z"/><path class="cls-32" d="M1066.82,40.62a.62.62,0,0,0,0,.84.67.67,0,0,0,1,0l3.33-3.69a0,0,0,0,0,0-.07L1067.82,34a.67.67,0,0,0-1,0,.62.62,0,0,0,0,.84l2.6,2.89Z"/><path class="cls-33" d="M1042.75,34.42a6.83,6.83,0,0,1,.32-3,2.82,2.82,0,0,1,1.29-1.24,7.53,7.53,0,0,1,3.1-.31h7.5a7.53,7.53,0,0,1,3.1.31,2.82,2.82,0,0,1,1.29,1.24,6.83,6.83,0,0,1,.32,3v6.63a6.83,6.83,0,0,1-.32,3,2.82,2.82,0,0,1-1.29,1.24,7.53,7.53,0,0,1-3.1.31h-7.5a7.53,7.53,0,0,1-3.1-.31,2.82,2.82,0,0,1-1.29-1.24,6.83,6.83,0,0,1-.32-3Z"/><path class="cls-20" d="M1053.2,40.62a.62.62,0,0,1,0,.84.67.67,0,0,1-1,0l-3.33-3.69a0,0,0,0,1,0-.07L1052.2,34a.67.67,0,0,1,1,0,.62.62,0,0,1,0,.84l-2.6,2.89Z"/><path class="cls-34" d="M994.85,23.69h856.68a5.31,5.31,0,0,1,5.4,5.21v532a5.31,5.31,0,0,1-5.4,5.21H994.85a5.31,5.31,0,0,1-5.4-5.21V28.9A5.31,5.31,0,0,1,994.85,23.69Z"/><path class="cls-35" d="M994.85,24.64h856.68A4.34,4.34,0,0,1,1856,28.9v532a4.34,4.34,0,0,1-4.42,4.26H994.85a4.34,4.34,0,0,1-4.41-4.26V28.9A4.34,4.34,0,0,1,994.85,24.64Z"/><rect class="cls-36" x="989.95" y="50.59" width="0.68" height="0.71"/><rect class="cls-36" x="1855.76" y="50.59" width="0.68" height="0.71"/><rect class="cls-37" x="1855.76" y="32.74" width="0.68" height="0.71"/><rect class="cls-38" x="1855.76" y="33.45" width="0.68" height="17.14"/><path class="cls-1" d="M1372.91,32.85l2.74,6.59,2.73-6.59h1.43v8.07h-1.1V37.78l.1-3.4-2.74,6.54h-.85l-2.74-6.52.1,3.38v3.14h-1.1V32.85Zm10.53,6.57,1.44-4.5H1386l-2.5,6.93a2,2,0,0,1-1.85,1.5l-.2,0-.39-.07v-.83l.29,0a1.49,1.49,0,0,0,.84-.21,1.53,1.53,0,0,0,.49-.77l.24-.61-2.22-5.94h1.16Zm7.33-1.66v3.16h-1.1V32.85h3.09a3.18,3.18,0,0,1,2.15.67,2.28,2.28,0,0,1,.78,1.8,2.23,2.23,0,0,1-.76,1.81,3.36,3.36,0,0,1-2.19.63Zm0-.87h2a2,2,0,0,0,1.36-.4,1.46,1.46,0,0,0,.47-1.16,1.52,1.52,0,0,0-.47-1.16,2,2,0,0,0-1.29-.45h-2.06Zm9-1a4.07,4.07,0,0,0-.52,0,1.41,1.41,0,0,0-1.42.86v4.26h-1.06v-6h1l0,.7a1.66,1.66,0,0,1,1.48-.81,1.1,1.1,0,0,1,.47.08ZM1403,41a2.76,2.76,0,0,1-2.06-.79,2.94,2.94,0,0,1-.79-2.15V37.9a3.54,3.54,0,0,1,.34-1.59,2.73,2.73,0,0,1,1-1.1,2.49,2.49,0,0,1,1.37-.4,2.39,2.39,0,0,1,1.89.77,3.26,3.26,0,0,1,.67,2.21v.43h-4.21a2,2,0,0,0,.54,1.43,1.69,1.69,0,0,0,1.31.55,1.88,1.88,0,0,0,1-.23,2.51,2.51,0,0,0,.69-.58l.64.48A2.61,2.61,0,0,1,1403,41Zm-.14-5.38a1.43,1.43,0,0,0-1.07.46,2.1,2.1,0,0,0-.54,1.26h3.11V37.3a1.82,1.82,0,0,0-.44-1.21A1.35,1.35,0,0,0,1402.86,35.65Zm7.23,3.68a.75.75,0,0,0-.33-.64,3,3,0,0,0-1.14-.4,5.62,5.62,0,0,1-1.27-.4,1.88,1.88,0,0,1-.71-.56,1.26,1.26,0,0,1-.22-.76,1.57,1.57,0,0,1,.64-1.25,2.61,2.61,0,0,1,1.66-.51,2.65,2.65,0,0,1,1.71.53,1.65,1.65,0,0,1,.66,1.35H1410a.9.9,0,0,0-.37-.73,1.43,1.43,0,0,0-.93-.31,1.51,1.51,0,0,0-.91.25.75.75,0,0,0-.33.64.63.63,0,0,0,.3.56,4.48,4.48,0,0,0,1.1.36,5.55,5.55,0,0,1,1.3.41,1.9,1.9,0,0,1,.73.57,1.39,1.39,0,0,1,.24.82,1.5,1.5,0,0,1-.67,1.29,2.88,2.88,0,0,1-1.73.48,3.24,3.24,0,0,1-1.32-.25,2.21,2.21,0,0,1-.9-.71,1.67,1.67,0,0,1-.32-1h1.06a1.09,1.09,0,0,0,.42.82,1.75,1.75,0,0,0,1.06.3,1.72,1.72,0,0,0,1-.24A.72.72,0,0,0,1410.09,39.33Zm4.83,1.7a2.75,2.75,0,0,1-2.05-.79,2.9,2.9,0,0,1-.8-2.15V37.9a3.54,3.54,0,0,1,.35-1.59,2.71,2.71,0,0,1,1-1.1,2.54,2.54,0,0,1,1.38-.4,2.36,2.36,0,0,1,1.88.77,3.21,3.21,0,0,1,.67,2.21v.43h-4.21a2.11,2.11,0,0,0,.54,1.43,1.7,1.7,0,0,0,1.31.55,1.86,1.86,0,0,0,1-.23,2.25,2.25,0,0,0,.69-.58l.65.48A2.63,2.63,0,0,1,1414.92,41Zm-.13-5.38a1.45,1.45,0,0,0-1.08.46,2.16,2.16,0,0,0-.54,1.26h3.12V37.3a1.93,1.93,0,0,0-.44-1.21A1.37,1.37,0,0,0,1414.79,35.65Zm4.61-.73,0,.76a2.3,2.3,0,0,1,1.86-.87c1.31,0,2,.72,2,2.15v4h-1.06V37a1.35,1.35,0,0,0-.31-1,1.3,1.3,0,0,0-.94-.31,1.55,1.55,0,0,0-.91.27,1.88,1.88,0,0,0-.61.7v4.27h-1.06v-6Zm6.73-1.45v1.45h1.16v.8h-1.16v3.72a.77.77,0,0,0,.16.54.65.65,0,0,0,.53.18,2.25,2.25,0,0,0,.5-.07v.83a2.92,2.92,0,0,1-.81.11,1.35,1.35,0,0,1-1.08-.41,1.75,1.75,0,0,1-.36-1.18V35.72h-1.13v-.8h1.13V33.47Zm6.06,7.45a1.91,1.91,0,0,1-.15-.63,2.41,2.41,0,0,1-1.77.74,2.25,2.25,0,0,1-1.52-.5,1.6,1.6,0,0,1-.59-1.27,1.68,1.68,0,0,1,.74-1.45,3.57,3.57,0,0,1,2.08-.53h1v-.47a1.11,1.11,0,0,0-.33-.85,1.36,1.36,0,0,0-1-.32,1.55,1.55,0,0,0-1,.28.79.79,0,0,0-.39.67h-1.07a1.39,1.39,0,0,1,.33-.87,2.24,2.24,0,0,1,.89-.66,3,3,0,0,1,1.26-.25,2.54,2.54,0,0,1,1.68.52,1.85,1.85,0,0,1,.64,1.43v2.76a3.35,3.35,0,0,0,.21,1.31v.09Zm-1.77-.78a1.9,1.9,0,0,0,.95-.25,1.51,1.51,0,0,0,.65-.65V38h-.83c-1.3,0-2,.37-2,1.11a.92.92,0,0,0,.33.75A1.34,1.34,0,0,0,1430.42,40.14Zm5.58-6.67v1.45h1.16v.8H1436v3.72a.83.83,0,0,0,.15.54.66.66,0,0,0,.53.18,2.41,2.41,0,0,0,.51-.07v.83a3,3,0,0,1-.82.11,1.35,1.35,0,0,1-1.08-.41,1.8,1.8,0,0,1-.35-1.18V35.72h-1.14v-.8h1.14V33.47Zm3.37,7.45h-1.07v-6h1.07Zm-1.15-7.59a.55.55,0,0,1,.62-.59.63.63,0,0,1,.48.17.63.63,0,0,1,0,.84.66.66,0,0,1-.48.16.64.64,0,0,1-.47-.16A.6.6,0,0,1,1438.22,33.33Zm2.37,4.54a3.45,3.45,0,0,1,.36-1.59,2.71,2.71,0,0,1,1-1.09,2.87,2.87,0,0,1,1.47-.38,2.65,2.65,0,0,1,2,.85,3.18,3.18,0,0,1,.79,2.26V38a3.36,3.36,0,0,1-.35,1.57,2.55,2.55,0,0,1-1,1.09,3,3,0,0,1-1.49.38,2.68,2.68,0,0,1-2-.84,3.21,3.21,0,0,1-.79-2.25Zm1.08.12a2.44,2.44,0,0,0,.48,1.6,1.65,1.65,0,0,0,2.56,0,2.69,2.69,0,0,0,.48-1.72,2.52,2.52,0,0,0-.48-1.6,1.64,1.64,0,0,0-2.56,0A2.72,2.72,0,0,0,1441.67,38Zm6.73-3.07,0,.76a2.28,2.28,0,0,1,1.86-.87c1.32,0,2,.72,2,2.15v4h-1.06V37a1.35,1.35,0,0,0-.32-1,1.25,1.25,0,0,0-.93-.31,1.57,1.57,0,0,0-.91.27,1.88,1.88,0,0,0-.61.7v4.27h-1.06v-6Z"/><path class="cls-39" d="M130.41,478.6h208.7a9,9,0,0,1,9.19,8.87V606.15a9,9,0,0,1-9.19,8.86H130.41a9,9,0,0,1-9.19-8.86V487.47A9,9,0,0,1,130.41,478.6Z"/><path class="cls-40" d="M551.64,1039.33c-3.75.48-12.64,3.48-12.56,6.71.12,5,7.67-.47,9.35-1.2,9-4,20.71,1.17,30.1,2.27,4.31.5,12.73,1.43,16.53-.66,6.77-3.72-8.88-2.79-10.87-2.94C573.36,1042.7,562.59,1037.91,551.64,1039.33Z"/><path class="cls-41" d="M369.44,572c0,23.47,2.25,42.49,32.48,42.49s32.48-19,32.48-42.49"/><path class="cls-42" d="M410.91,557.36a46.92,46.92,0,0,0-3,4.81,55,55,0,0,1,.81-10.17c1.06-5.88,2.67-11.72,4.18-17.56,1.09-4.19,1-11.72,5.15-15.07,1.13-.72,1.4.7,1.4,1.31,0,.13,0-2.51-1.1-2-6.53,2.78-8.64,11.5-10.73,15.86-3,6.38-5.65,12.89-6.72,19.52a35.47,35.47,0,0,0-.45,5c-.22-.45-.43-.9-.66-1.34a89.18,89.18,0,0,0-15.2-20.9c-1.56-1.61-21.19-17.49-22.73-15.06a1.87,1.87,0,0,0,.95.88s0,0,0,0c1.15,1.53,4.43,3.89,5.45,5.24a96.16,96.16,0,0,1,6.6,10.47c4.28,7.43,8.26,14.94,12.12,22.46q1.35,2.63,2.79,5.23a90.81,90.81,0,0,0-41.05-28.34c6.17,2.58,10.22,7.44,14.39,11.16,5,4.49,10.32,8.85,15.36,13.34,5.94,5.28,12.93,10.85,18.65,16.71,5.54,9.55,10.92,19.12,14.24,29.17-1.36-3.47-.11-8.27-.34-11.91a68.56,68.56,0,0,0-1.16-8.65,16,16,0,0,1,1.57,3.8c-.25-2-.54-4-.84-6,.79-1.87,1.56-3.62,2.09-5.06A116.7,116.7,0,0,1,423,558.48a190.61,190.61,0,0,1,13.7-19.25c2.35-2.91,4.74-5.82,7.1-8.73,1.56-1.91,3-5,5.19-6.78C435,534.21,419.76,544.77,410.91,557.36Z"/><path class="cls-43" d="M709.91,320.56c8.85,5.15,17.55,7.64,21.63,6.62,10.23-2.54,11.17-38.66,3.26-52.9s-48.64-20.45-50.69,7.76c-.72,9.8,3.55,18.53,9.84,25.66l-11.29,50.77h32.8Z"/><path class="cls-44" d="M732.65,268.75c-.28-1.72.28-2.56-6.89-7.41s-18.75-10.56-30.41-8.07c-15.14,3.23-21.15,12.86-27,17.54-5.26,4.22-10.54,4.71-13.67,9.95s-4.79,20.3-2.07,26.29c3.75,8.27,11.15,10.49,16.56,12.87,9.26,4.08,22.36-.23,22.68-.94,2.45-5.53,15.66-21.11,23.6-27.66C721.31,286.5,734,276.83,732.65,268.75Z"/><g class="cls-45"><path class="cls-46" d="M675.45,289.92a63.37,63.37,0,0,1-12.89-27.38l-3.14,1.92S663.28,280.81,675.45,289.92Zm4,6.82c-16.89-14.31-20.91-30.39-20.91-30.39l-3.64,1S659.88,285.36,679.42,296.74Z"/></g><path class="cls-43" d="M708.4,316.57c7.87,4.58,15.6,6.79,19.23,5.89,9.09-2.27,9.93-34.37,2.89-47s-43.23-18.18-45.06,6.9c-.63,8.71,3.16,16.47,8.76,22.81l-10,45.13h29.16Z"/><path class="cls-47" d="M729.64,268.3c.52-1.46,4.1-6-2.27-10.29-1.15-.78-3,0-4.68-.49-1.23-.37-1.65-2-3.06-2.32s-3.07,1.06-4.73.94c-1-.07-2.58-1.6-3.64-1.68-1.89-.15-3.6,1.57-5.45,1.68-1.07.07-2.31-1.59-3.37-1.68-2.58-.21-4.93.95-7.21,1.3-2.1.32-3.07,4.47-4.62,5.45-4.85,3.07-8.64,3.93-12.58,7.09-4.68,3.75-5.57,6.54-7.51,9s-3.13,11.31-2,17c.66,3.33,2.4,12.42,6.28,15.94,5.31,4.82,16.12,6.25,17.08,5.61,4.44-3,14.4-19.45,21.46-25.27C718.53,286.3,726.39,277.34,729.64,268.3Z"/><g class="cls-48"><path class="cls-46" d="M688.92,275.81c2.17-6.44,6.13-22.53,6.13-22.53l-2.39.24s-1.89,10.27-3.84,16.92c-1.77,6.08-3.82,12-5.42,16.73-2.23,6.47-3.61,10.51-2.31,9.08a6.28,6.28,0,0,0,.47-.6s0,0,.07.05c-.09.17,0,.1.42-.25h0c2.22-2,8.59-9,15.26-20.63,3.07-5.35,8.7-18.91,8.7-18.91l-2.23-.92s-3.72,10.71-6.47,15.9A181.81,181.81,0,0,1,685,291c1.21-2.35,2.65-5.5,4.44-9.42q1.18-2.6,2.59-5.64c2.86-6.19,8.54-21.79,8.54-21.79h-2.41s-3,10-5.64,16.43c-2.43,5.87-5.11,11.59-7.22,16.09h0c0,.08-.07.15-.1.23.53-1.56,1.1-3.29,1.74-5.2S688.2,277.93,688.92,275.81Z"/></g><path class="cls-49" d="M660.84,469.8l51.35,162.26,24.88,138h19.51L730.29,469.8Z"/><path class="cls-43" d="M642.47,469.8c3.48,89.09-.62,135.05-1.4,143.14s-11.47,60.58-36.78,159.84l20.78-6.9c40-91,53.63-138.35,58.22-150.3S700.06,555,719.84,469.8Z"/><path class="cls-50" d="M608.23,767a2.51,2.51,0,0,0-3.42,1.32c-.87,2.47-2,6.15-2,8.22a80.42,80.42,0,0,0,1.08,9.69H671.2s2.62-8.92-3-9.63-9.4-1.29-9.4-1.29L627.53,761a1.22,1.22,0,0,0-1.65.64l-2,5s-5.23,2.51-8.51,2.51C613.41,769.12,610.37,767.93,608.23,767Z"/><path class="cls-51" d="M607.75,765.47a2.49,2.49,0,0,0-3.33,1.29c-.89,2.36-2.08,5.88-2.08,7.87a72.38,72.38,0,0,0,1.1,9.25H672s2.67-8.51-3.08-9.19-9.56-1.23-9.56-1.23l-31.85-13.69a1.23,1.23,0,0,0-1.62.62l-2.05,4.79s-5.32,2.4-8.65,2.4C613.12,767.58,609.93,766.39,607.75,765.47Z"/><path class="cls-52" d="M654,469.8l21.84,82.67h66.7L732.6,469.8Z"/><path class="cls-53" d="M641.73,469.8c-10.78,31.22-4.09,82.67-4.09,82.67H705.7l18.71-82.67Z"/><path class="cls-51" d="M738.18,766.61a2.49,2.49,0,0,0-3.33,1.3c-.89,2.35-2.07,5.88-2.07,7.87a73.26,73.26,0,0,0,1.09,9.26h68.52s2.68-8.53-3.08-9.2-9.56-1.23-9.56-1.23l-31.85-13.7a1.24,1.24,0,0,0-1.62.63l-2,4.79s-5.33,2.39-8.66,2.39C743.55,768.72,740.36,767.54,738.18,766.61Z"/><path class="cls-43" d="M849.34,338.37l-53.46,7.87,10,22.79,43.18-17.2q28.15,2.19,27.17-1.73c-.57-2.2-2.57-2.83-4.41-3.41-1.44-.46-2.78-.88-3.28-2-1.11-2.54,4.88-7.93,10.8-12.81s1.87-5.7-.66-5.59Q865.27,329.56,849.34,338.37Zm-32,130.72-38.72-36.38L765.8,454.14,806.07,477q15.15,23,17.79,19.85c1.49-1.75.81-3.67.18-5.44-.49-1.38-.95-2.67-.32-3.71,1.43-2.39,9.52-1,17.13.59s5.85-2,4.22-3.86Q834.29,476,817.38,469.09Z"/><path class="cls-54" d="M723.58,341.42c17.36,45.39,46.64,82.36,91,122.68L793,481.83c-52.16-27.15-79.47-43-87.93-84.79-2.12-10.49,0-42.74.33-59.81Z"/><path class="cls-10" d="M637.36,473.14l104.22,14.13S721.32,378.48,726.2,339.63c.16-1.32-2-4-3.19-3.84-12.74,1.68-25.87-6.05-25.87-6.05C666.86,364.65,651.45,410.6,637.36,473.14Z"/><path class="cls-55" d="M714.77,391.66c6.48,69.43-2.28,124.36-38.22,119.49L621,503.62c-.5-58.31,34.23-134.35,61.55-171.37,1.05-1.41,3.21-4.05,7.33-3.49L706,331V331c4.85.7,10.18,1.59,16,2.57,29.69,5,71.09,12,120,3.84l1.65,27.3C797.57,385.15,751.84,399.62,714.77,391.66Z"/><path class="cls-56" d="M735.4,784.64h67.71v1.81H735.4Z"/><path class="cls-56" d="M757.77,765.63l31.44,10v.9l-31.44-9Z"/><rect class="cls-57" x="384.58" y="572.06" width="38.27" height="35.02"/><path class="cls-58" d="M1391.58,587.73h64.65a3.17,3.17,0,0,1,3.23,3.12v2.34a3.17,3.17,0,0,1-3.23,3.12h-64.65a3.18,3.18,0,0,1-3.23-3.12v-2.34A3.18,3.18,0,0,1,1391.58,587.73Z"/><g class="cls-59"><path class="cls-47" d="M1401.26,473.61c102.65,0,185.87-80.27,185.87-179.29S1503.91,115,1401.26,115s-185.87,80.27-185.87,179.28S1298.61,473.61,1401.26,473.61Z"/><path class="cls-60" d="M1616.22,322.39c18.3,0,33.13-14.31,33.13-32s-14.83-32-33.13-32-33.13,14.31-33.13,32S1597.92,322.39,1616.22,322.39Z"/></g><path class="cls-61" d="M1344.05,93.87l143.92.21c16.27,0,29.44,12.76,29.42,28.45l-.53,345.39c0,15.69-13.23,28.39-29.5,28.37l-143.92-.2c-16.27,0-29.44-12.77-29.41-28.46l.52-345.39C1314.57,106.55,1327.78,93.85,1344.05,93.87Z"/><path class="cls-55" d="M1343.1,102.45c-10.84,0-19.64,8.45-19.66,18.91L1322.92,468c0,10.46,8.76,18.95,19.6,19l145.19.2c10.85,0,19.66-8.45,19.67-18.91l.53-346.65c0-10.46-8.76-19-19.61-19l-22.63,0v3.16a10.94,10.94,0,0,1-11.14,10.71l-77.11-.11a10.92,10.92,0,0,1-11.11-10.74v-3.16Z"/><path class="cls-4" d="M2026.41,485.78a22.38,22.38,0,0,1,9.48.82c6.25,2.18,8,8.26,7.95,13.19-.1,5.32-1.47,11.13,3.45,15.41,2.25,2,5.07,3.47,7.28,5.48a25.75,25.75,0,0,1,5.61,7.22c2.53,4.84,3.77,10.53,1.45,15.6-2,4.47-7.15,8.5-6,13.58,1.15,5.29,7.64,9.34,11.71,13.29,4.6,4.47,8.82,10.17,9.52,16,.67,5.61-2.31,11.29-6.86,15.53-9.11,8.48-22.81,12.63-36.61,12.61-5.87,0-12.5-.23-17.56-2.82a8.77,8.77,0,0,1-3.32-3,10.87,10.87,0,0,0-3.21-2.64,16.37,16.37,0,0,1-6.11-6.71c-5-10.2-1-22.82,6-31.87,1.66-2.15,3-4.21,2.22-6.77s-2.92-5.08-4.75-7.37a58.9,58.9,0,0,1-5.29-6.88,13.22,13.22,0,0,1-1.64-8.07c.49-5.29,3.26-10.16,7.19-14.4,3.78-4.1,8.22-8,8.23-13.37,0-5.68-4.61-10.73-2.64-16.51a11.12,11.12,0,0,1,5.09-6.28C2020.1,486.53,2023.43,486.08,2026.41,485.78Z"/><path class="cls-62" d="M2024.35,494.86c.05-.76,1.15-1.22,2-1,1.14.26,1.12,1.14,1.09,1.92a21.58,21.58,0,0,0,1,7.06c1.46,4.84,4.16,9.3,6.29,13.95s3.13,9.44,1.88,14.36c-1.18,4.63-3,9.15-4.24,13.79-1.07,4.09-2.2,8.4-.57,12.48s5,7.13,7.49,10.68a43.59,43.59,0,0,1,7.71,23.88,36.68,36.68,0,0,1-1.08,11.65c-.63,2.2-1.48,5.17-3.77,6.69-1.06.7-2.87.94-3.76-.09s-.1-2.48.16-3.52a44.13,44.13,0,0,0,1.11-13.63,41.42,41.42,0,0,0-2.59-13,42.17,42.17,0,0,0-6.75-10.85c-2.86-3.48-5.83-7-7-11.11s-.23-8.47,1.08-12.59a127.63,127.63,0,0,1,5-12.82,18.79,18.79,0,0,0,1.45-12.35C2029,511.76,2023.65,503.75,2024.35,494.86Z"/><path class="cls-4" d="M2109.92,496.13c3.91,1,7.8,2.56,10.58,5,5.94,5.26,4.12,13.2.84,19-3.52,6.24-8.86,12.52-5.85,19.69,1.39,3.29,3.71,6.28,5,9.6a27.82,27.82,0,0,1,1.93,10.94c-.14,6.8-2.34,14.06-8.31,19.07-5.26,4.41-13.86,7-15.82,13.47-2.06,6.75,3,14.32,5.18,20.73,2.52,7.24,3.82,15.8.87,23-2.82,6.92-10,12.36-18,15.43-16.14,6.13-34.87,5.18-51-.75-6.87-2.52-14.52-5.62-18.79-10.85a9.07,9.07,0,0,1-2-4.9,10.94,10.94,0,0,0-2.06-4.5,17.27,17.27,0,0,1-2.85-10.55c.68-14.2,13.48-27.41,27.52-35.12,3.33-1.83,6.26-3.69,7-7.06s-.15-7.25-.82-10.74-1.7-6.9-1.78-10.41a17.57,17.57,0,0,1,3.27-10.24c4-6,10.35-10.61,17.69-14,7.06-3.22,14.79-5.95,18.24-12.28,3.67-6.72,1.49-14.67,7.51-20.66a18.23,18.23,0,0,1,10-5.25C2102,494.32,2106.23,495.22,2109.92,496.13Z"/><path class="cls-62" d="M2101.92,507.24a2.31,2.31,0,0,1,3-.34c1.17.8.58,1.83,0,2.74a29.68,29.68,0,0,0-3.29,8.81c-1.37,6.36-1.07,12.8-1.54,19.23s-2.34,12.53-6.94,17.81c-4.33,5-9.37,9.53-13.74,14.51-3.85,4.38-7.92,9-8.62,14.54-.68,5.32,1.31,10.59,2,15.86,1.32,10.92-1.2,21.56-6.18,31.62a56.06,56.06,0,0,1-8.69,13.32c-2.14,2.34-5,5.49-8.68,6.3-1.68.38-4-.12-4.33-1.73s1.46-3,2.43-4.09a66.3,66.3,0,0,0,10-15.67,55.3,55.3,0,0,0,5.28-16.55,47.83,47.83,0,0,0-1-15.76c-1.12-5.36-2.36-10.78-1.11-16.19s5.13-10.12,9.28-14.43c4.37-4.57,9.18-8.8,14.06-13s8-8.45,9.57-14C2096.55,529.24,2095.45,517.47,2101.92,507.24Z"/><path class="cls-62" d="M1988.93,536.46a22.76,22.76,0,0,1,16.17,6.86c4.61,4.71,5.54,10.47,7.42,16.08a14,14,0,0,0,5.35,7.47c2.55,1.73,5.8,2.07,8.85,2.92,6.12,1.68,11.06,5.75,13,10.7,2.38,6-.14,12.14.29,18.27.4,5.63,7.15,9.14,12.58,11.83s10.16,5.15,11.78,10.33c1.71,5.5,2.28,11.63-.09,17.06-3.93,9-15.47,13-26.62,13.64-10.12.56-22.84-.32-30.43-6.36a16,16,0,0,1-6-13.7,34.86,34.86,0,0,1,1.85-9.24,34.32,34.32,0,0,0,1.89-6.49c.7-5.89-5.91-7-11.55-8.63a26.53,26.53,0,0,1-15.65-11.34c-3.24-5-4.61-10.69-2.66-16.23a18.56,18.56,0,0,1,5.24-7.58c1.08-1,2.59-1.76,3.56-2.77s.71-2.16.4-3.27c-1.44-5.1-5.94-9.32-7.55-14.42-1.45-4.59-.6-10.31,4.52-13.28A15.45,15.45,0,0,1,1988.93,536.46Z"/><path class="cls-63" d="M1997.79,549.75c6.9,6,8.78,14.24,9.33,22.19.3,4.45,0,9.15,1.57,13.47,1.37,3.7,4.56,6.53,7.85,9.2,6.63,5.38,14,10.85,16,18.63,1.14,4.57.37,9.29,1.94,13.81a35.94,35.94,0,0,0,7,11.61c2.45,2.79,5.67,4.93,8.36,7.53.82.8,2,2,1.66,3.09-.4,1.31-2.43,1.73-3.88,1.52-3.36-.48-6.2-3.12-8.4-5a44.9,44.9,0,0,1-8.17-9.23,34.45,34.45,0,0,1-5.31-12c-.88-4.39-.44-8.95-2.45-13.16-3.39-7.08-11.6-11.25-17.54-16.77-7.4-6.87-6.29-15.42-5.53-23.88.41-4.65.82-9.89-2-14.13-1.09-1.62-3.52-3.13-4-5A2.17,2.17,0,0,1,1997.79,549.75Z"/><path class="cls-53" d="M2005.15,649c0,34.55,6.86,52.65,43.06,52.65s43.06-18.1,43.06-52.65Z"/><path class="cls-64" d="M979.44,18.71h888.12V586.17H979.44Z"/><rect x="975.4" y="12.47" width="896.2" height="4.68"/><rect x="975.4" y="583.06" width="896.2" height="7.02"/><rect x="975.4" y="12.47" width="6.46" height="572.92"/><rect x="1865.14" y="17.15" width="6.46" height="572.92"/></svg>