<svg width="208" height="208" viewBox="0 0 208 208" fill="none" 
    xmlns="http://www.w3.org/2000/svg">
    <rect width="208" height="208" fill="#E5E5E5"/>
    <path fill-rule="evenodd" clip-rule="evenodd" d="M22.68 186.946C30.3347 186.946 36.54 180.337 36.54 172.184C36.54 164.032 30.3347 157.423 22.68 157.423C15.0253 157.423 8.82001 164.032 8.82001 172.184C8.82001 180.337 15.0253 186.946 22.68 186.946Z" fill="#C5CFD6"/>
    <path fill-rule="evenodd" clip-rule="evenodd" d="M46.3958 178.184C47.099 180.151 47.9324 182.349 48.8717 184.668L51.0632 183.955C51.0539 183.891 51.0445 183.827 51.0352 183.763C51.7775 183.674 52.4425 182.746 52.1068 181.98C52.0254 181.795 51.7552 181.133 51.3521 180.146C50.9888 179.256 50.5176 178.102 49.9793 176.794C48.5486 167.69 47.3717 161.657 46.6363 159.532C46.0324 157.787 41.4636 157.991 41.9892 161.502C42.088 162.162 42.3175 163.317 42.6439 164.794C41.2047 165.4 39.9032 167.091 40.685 168.643C41.1322 169.53 41.6157 170.472 42.1235 171.441C43.0371 173.184 44.752 175.803 46.3958 178.184Z" fill="#B28B67"/>
    <path fill-rule="evenodd" clip-rule="evenodd" d="M46.7764 158.053C46.411 156.722 29.8012 152 29.8012 152H28.44V153.415L39.8857 159.916C39.8705 160.126 39.8798 160.348 39.9167 160.582C39.8341 165.401 41.6827 169.001 43.513 172.566C44.7099 174.897 45.899 177.213 46.535 179.844L50.7401 179.144C50.6176 178.795 50.4239 177.219 50.1591 175.064C49.4913 169.63 48.3713 160.517 46.8 158.106C46.7945 158.098 46.7889 158.089 46.7833 158.081C46.7812 158.072 46.7789 158.062 46.7764 158.053Z" fill="#1F28CF"/>
    <path fill-rule="evenodd" clip-rule="evenodd" d="M42.4897 178.368C42.6911 180.352 42.953 182.581 43.2751 184.946L45.0366 184.687C45.0402 184.625 45.0438 184.564 45.0474 184.502C45.5393 184.422 46.0322 183.746 45.927 183.041C45.8988 182.853 45.8126 182.184 45.6838 181.186C45.5958 180.504 45.4879 179.667 45.3652 178.726C45.8425 169.427 45.9775 163.226 45.7718 161.027C45.6087 159.284 42.1496 158.625 41.9608 162.005C41.9252 162.644 41.9054 163.776 41.9051 165.231C40.8176 165.56 39.6877 166.877 39.9884 168.443C40.1637 169.356 40.3561 170.327 40.5612 171.327C40.9275 173.113 41.7132 175.852 42.4897 178.368Z" fill="#B28B67"/>
    <path fill-rule="evenodd" clip-rule="evenodd" d="M39.5241 165.963C37.1176 165.532 34.2484 164.879 31.6192 164.281C29.7163 163.848 27.9392 163.444 26.5541 163.173C21.2237 162.13 19.6693 158.946 20.5883 152H30.4095C32.0138 152.514 40.3513 156.415 44.6772 158.49C46.0019 159.126 46.5205 160.527 46.5347 161.977C46.5372 161.984 46.5392 161.99 46.5407 161.997C48.041 168.884 46.8594 174.261 46.1006 177.715C45.7827 179.161 45.5391 180.27 45.5978 181.01L41.8947 181.408L39.5241 165.963Z" fill="#2B44FF"/>
    <path fill-rule="evenodd" clip-rule="evenodd" d="M50.3104 182.811C49.5065 182.811 48.5966 182.926 48.46 183.63C48.4316 183.776 48.4138 183.911 48.4138 184.02C48.4138 184.563 48.576 185.605 48.576 185.605C49.1408 185.605 58.7283 185.605 58.7283 185.605C58.7283 185.605 59.1241 184.146 58.2715 184.029C57.4188 183.913 56.8549 183.819 56.8549 183.819L53.0127 181.908C52.4709 181.638 51.7869 181.875 51.5932 182.4C51.5932 182.4 50.8039 182.811 50.3104 182.811Z" fill="#E05757"/>
    <path fill-rule="evenodd" clip-rule="evenodd" d="M43.9266 183.755C43.0724 183.742 42.1033 183.86 41.9919 184.608C41.977 184.708 41.9693 184.8 41.9716 184.878C41.9871 185.396 42.1869 186.392 42.1869 186.392C42.7794 186.402 52.8366 186.558 52.8366 186.558C52.8366 186.558 53.2102 185.173 52.3125 185.048C51.4147 184.923 50.8205 184.824 50.8205 184.824L46.6669 182.907C46.113 182.651 45.4535 182.875 45.2605 183.384C45.2605 183.384 44.4443 183.763 43.9266 183.755Z" fill="#E32D2D"/>
    <path fill-rule="evenodd" clip-rule="evenodd" d="M47.0779 153.404L41.72 148.895L40.5356 152.25L45.8414 154.772C47.3419 156.792 48.181 157.635 48.3586 157.299C48.5083 157.015 48.3913 156.75 48.2835 156.506C48.1995 156.316 48.1211 156.138 48.1788 155.975C48.3106 155.602 49.3186 155.641 50.2737 155.725C51.2288 155.809 50.9505 155.322 50.7202 155.082C49.7452 154.413 48.5311 153.854 47.0779 153.404ZM39.2784 166.424C38.7423 165.3 31.4839 156.744 31.4839 156.744L33.7824 154.056C33.7824 154.056 40.6689 164.391 41.051 165.07C41.5474 165.952 42.9598 166.417 43.9175 166.733C44.0656 166.781 44.2029 166.827 44.3242 166.869C44.1803 167.463 43.7623 167.444 43.3217 167.424C42.8239 167.402 42.2973 167.379 42.1039 168.235C42.0292 168.565 41.9864 168.902 41.9446 169.232C41.8001 170.369 41.6674 171.414 40.2719 171.778C40.0506 171.836 39.5434 171.669 39.5747 171.033C39.6528 169.45 39.5405 166.974 39.2784 166.424Z" fill="#B28B67"/>
    <path fill-rule="evenodd" clip-rule="evenodd" d="M28.4488 130.026L29.9012 129.741C35.2902 135.077 37.5037 145.327 44.1093 150.757L42.5194 153.016C31.0599 151.389 28.2195 138.886 28.4488 130.026Z" fill="#E87613"/>
    <path fill-rule="evenodd" clip-rule="evenodd" d="M22.1172 150.947C22.1172 150.947 30.8528 150.947 34.9687 150.947C35.556 150.947 35.4453 149.975 35.3604 149.484C34.3807 143.824 30.5562 137.723 30.5562 129.666L26.8492 129C23.783 134.652 22.7227 141.61 22.1172 150.947Z" fill="#DDE3E9"/>
    <path fill-rule="evenodd" clip-rule="evenodd" d="M20.9414 133.314C21.6312 134.741 23.0403 134.65 24.2577 134.217C24.2211 134.311 24.1845 134.407 24.1479 134.502L23.899 134.493C23.899 134.493 23.8957 134.715 23.9114 135.127C21.7448 140.914 19.6456 148.352 19.2617 154.989H30.0597C31.7478 157.844 33.8981 160.758 36.6372 163.56L38.6474 161.649C37.5174 157.722 34.1216 150.778 31.0571 144.903C30.2013 137.361 28.0753 129.103 28.0753 129.103L26.8453 129.023C26.7622 129.008 26.6706 129 26.57 129C25.5316 129 24.699 128.788 23.9652 128.602C23.0688 128.374 22.32 128.184 21.5238 128.463C20.0758 128.97 19.5865 130.512 20.9414 133.314Z" fill="#FF9B21"/>
    <path fill-rule="evenodd" clip-rule="evenodd" d="M20.6721 154.989C21.43 152.903 22.2071 150.468 22.9549 147.954C23.2333 150.723 23.6969 153.504 24.4688 154.989H20.6721Z" fill="black" fill-opacity="0.1"/>
    <path fill-rule="evenodd" clip-rule="evenodd" d="M142.147 186.122C142.485 183.229 143.377 173.2 143.322 168.532C143.26 163.204 143.08 158.57 142.916 156.883C142.527 152.858 138.297 154.482 138.178 156.621C137.906 161.477 139.92 184.543 140.011 185.999C140.101 187.455 141.935 187.94 142.147 186.122Z" fill="#B28B67"/>
    <path fill-rule="evenodd" clip-rule="evenodd" d="M152.387 176.71L146.821 154.854C145.393 151.27 140.593 155.224 141.032 157.281C142.029 161.952 147.585 177.202 147.883 178.594L152.387 176.71Z" fill="#1F28CF"/>
    <path fill-rule="evenodd" clip-rule="evenodd" d="M151.3 180.255C152.002 179.774 152.851 179.365 153.251 180.076C153.307 180.177 153.354 180.272 153.385 180.357C153.587 180.908 153.834 182.059 153.834 182.059C153.347 182.393 145.075 188.066 145.075 188.066C145.075 188.066 144.191 186.821 144.884 186.199C145.576 185.577 146.028 185.148 146.028 185.148L148.684 180.857C149.033 180.294 149.665 180.165 150.029 180.584L150.041 180.598C150.041 180.598 150.874 180.547 151.3 180.255Z" fill="#030B0B"/>
    <path fill-rule="evenodd" clip-rule="evenodd" d="M141.323 185.941C142.072 185.797 142.94 185.746 143.209 186.458C143.28 186.645 143.335 186.819 143.362 186.959C143.478 187.569 143.548 188.77 143.548 188.77C143.018 188.872 134.018 190.597 134.018 190.597C134.018 190.597 133.335 189.027 134.11 188.743C134.886 188.459 135.395 188.252 135.395 188.252L138.558 185.445C139.02 185.034 139.743 185.164 140.032 185.71C140.032 185.71 140.86 186.029 141.323 185.941Z" fill="#1C1212"/>
    <path fill-rule="evenodd" clip-rule="evenodd" d="M137.608 158.245C137.261 164.34 138.619 178.676 138.543 180.019L143.206 180.281C143.206 180.281 143.267 161.196 143.576 161.008C143.885 160.819 155.691 163.269 159.262 163.466C164.412 163.75 166.789 159.531 167.42 151.506L157.218 150.943C155.124 151.125 144.124 153.446 140.043 154.227C138.296 154.562 137.704 156.566 137.608 158.245Z" fill="#2B44FF"/>
    <path fill-rule="evenodd" clip-rule="evenodd" d="M157.5 193C164.956 193 171 186.284 171 178C171 169.716 164.956 163 157.5 163C150.044 163 144 169.716 144 178C144 186.284 150.044 193 157.5 193Z" fill="#C5CFD6"/>
    <path fill-rule="evenodd" clip-rule="evenodd" d="M140.267 139.656L146.907 136.654L148.365 140.441L141.794 141.425C139.933 143.04 138.893 143.649 138.674 143.252C138.489 142.918 138.635 142.682 138.769 142.465C138.873 142.296 138.97 142.138 138.899 141.953C138.737 141.532 137.49 141.269 136.308 141.069C135.126 140.868 135.471 140.453 135.757 140.277C136.965 139.886 138.468 139.679 140.267 139.656ZM144.579 146.601L150.61 141.595L151.65 145.625L145.809 148.289C144.069 150.585 143.116 151.529 142.949 151.122C142.808 150.779 142.951 150.473 143.082 150.191C143.185 149.972 143.281 149.767 143.23 149.571C143.114 149.122 142.034 149.109 141.007 149.152C139.981 149.195 140.311 148.637 140.573 148.366C141.661 147.634 142.996 147.046 144.579 146.601Z" fill="#B28B67"/>
    <path fill-rule="evenodd" clip-rule="evenodd" d="M160.322 127.751C156.784 134.939 151.953 140.332 145.08 145.836L147.355 149.506C154.85 146.475 158.821 144.616 161.11 137.767C161.684 136.048 162.333 130.503 162.784 127.591L160.322 127.751Z" fill="#2026A2"/>
    <path fill-rule="evenodd" clip-rule="evenodd" d="M167.645 152.754L153.82 151.991C153.82 151.991 159.55 134.119 160.037 127.367C160.054 127.138 160.412 126.752 160.557 126.813C162.15 127.484 164.063 126.57 164.063 126.57C166.96 133.422 167.625 141.698 167.645 152.754Z" fill="#F2F2F2"/>
    <path fill-rule="evenodd" clip-rule="evenodd" d="M161.507 158.024L168.879 158.431C170.617 148.538 168.327 134.561 165.871 127.44C165.777 127.168 165.574 126.654 165.028 126.623L162.886 126.505C162.456 127.831 162.045 129.158 161.657 130.475C161.408 130.632 161.15 130.796 160.885 130.965C157.552 133.083 152.906 136.037 146.243 136.957L147.997 141.321C151.86 141.935 155.589 142.283 158.838 142.021C157.18 151.032 157.515 157.804 161.507 158.024Z" fill="#1F28CF"/>
    <path fill-rule="evenodd" clip-rule="evenodd" d="M161.097 124.756C160.151 125.153 159.319 125.319 158.86 125.207C157.263 124.817 157.116 119.285 158.352 117.104C159.587 114.923 165.94 113.972 166.26 118.294C166.382 119.936 165.572 121.385 164.435 122.529L166 127H162L160.5 126.5L161.097 124.756Z" fill="#B28B67"/>
    <path fill-rule="evenodd" clip-rule="evenodd" d="M161.979 118.771C161.536 118.147 161.111 117.671 160.558 117.394C158.308 117.428 158.045 117.046 158.045 115.759C158.408 115.512 159.69 115.098 161.126 114.981C161.859 114.783 162.726 114.82 163.562 115.151C164.594 115.428 165.468 116.025 165.854 117.143C167.25 119.425 166.191 121.8 164.762 122.612C164.382 122.185 164.05 121.772 163.754 121.376C163.992 121.156 164.14 120.849 164.14 120.51C164.14 119.841 163.567 119.298 162.86 119.298C162.808 119.298 162.757 119.301 162.707 119.307C162.675 120.143 162.544 122.974 162.2 123.957C161.795 125.116 159.431 125.4 158.606 125.4C157.894 125.4 157.918 124.762 157.935 124.304C157.938 124.238 157.94 124.176 157.94 124.12C157.94 124.003 158.101 124.003 158.282 124.004C158.518 124.004 158.789 124.005 158.789 123.748C158.789 123.469 158.382 123.255 158.017 123.064C157.79 122.944 157.579 122.833 157.494 122.721C157.227 122.367 157.137 121.889 157.54 121.889C157.761 121.889 158.063 122.009 158.427 122.154C158.976 122.373 159.665 122.647 160.424 122.647C161.677 122.647 161.975 118.819 161.979 118.771Z" fill="#191847"/>
    <path d="M77 142.127L77 142L71.2562 151.229L71.5339 151.229L77 142.127Z" fill="#1A1616"/>
    <path d="M71.391 151.443L71.391 150.999L60.0033 151.443L60.0033 151.626L71.391 151.443Z" fill="#302A2A"/>
    <path d="M130.013 152.186L129.514 152.613L120.742 142.382L121.24 141.954L130.013 152.186Z" fill="#1A1616"/>
    <path d="M124.661 155.199L124.145 155.208L124 147.009L124.516 147L124.661 155.199Z" fill="#1A1616"/>
    <path d="M123.385 146.711L123.243 146L123.855 146.851L124.195 147.328L123.385 146.711Z" fill="#1A1616"/>
    <ellipse cx="98" cy="152.5" rx="7" ry="4.5" fill="#C4C4C4"/>
    <path fill-rule="evenodd" clip-rule="evenodd" d="M29.7538 126.736C31.0287 127.575 32.304 127.961 32.8548 127.77C34.1341 127.326 33.9042 121.916 32.7574 119.834C31.6106 117.753 26.3639 117.076 26.3757 121.31C26.3806 123.052 27.2612 124.529 28.3853 125.633L28.2327 125.64L27 129L28.2327 130L30.7142 131.092L29.7538 126.736Z" fill="#B28B67"/>
    <path fill-rule="evenodd" clip-rule="evenodd" d="M28.54 126.481C27.8055 123.865 26.0836 122.141 26.2523 120.948C26.421 119.754 27.464 119.415 27.464 119.415C27.464 119.415 27.8615 117.046 30.877 117.25C33.8924 117.455 35.8039 118.676 35.2017 121.599C34.4766 121.634 33.5833 121.4 32.4035 121.932C31.842 122.186 31.6699 123.371 31.6699 123.371L31.1229 123.397C31.1229 123.397 30.2365 122.044 29.4863 122.451C28.7361 122.857 29.2504 124.26 29.2504 124.26L29.122 126.453L28.54 126.481Z" fill="#191847"/>
    <path fill-rule="evenodd" clip-rule="evenodd" d="M58 189V160V152H70.264H118.736H131V160V189H118.736V160H70.264V189H58Z" fill="#D0C4C4"/>
</svg>
