<?xml version="1.0" encoding="utf-8"?>
<!-- Generator: Adobe Illustrator 23.0.1, SVG Export Plug-In . SVG Version: 6.00 Build 0)  -->
<svg version="1.1" id="Layer_1" xmlns="http://www.w3.org/2000/svg" xmlns:xlink="http://www.w3.org/1999/xlink" x="0px" y="0px"
	 viewBox="0 0 497 435" style="enable-background:new 0 0 497 435;" xml:space="preserve">
<style type="text/css">
	.st0{fill:#FFFFFF;}
	.st1{fill:none;stroke:#000000;stroke-miterlimit:10;}
	.st2{fill:#3FA9F5;}
	.st3{fill:none;stroke:#0000FF;stroke-width:3;stroke-miterlimit:10;}
	.st4{fill:none;stroke:#ED1C24;stroke-width:3;stroke-miterlimit:10;}
	.st5{fill:none;stroke:#1B1464;stroke-width:3;stroke-miterlimit:10;}
</style>
<g>
	<path d="M114.77,220.72c-28.83,0-77.71-5.85-81.13-45c-0.79-9.09,1.86-17.03,7.89-23.6c12.31-13.43,39.01-21.14,73.25-21.14
		c22.58,0,43.08,4.28,57.72,12.06c15.31,8.13,23.41,19.48,23.41,32.81s-8.09,24.67-23.41,32.81
		C157.85,216.44,137.35,220.72,114.77,220.72z"/>
	<path d="M114.77,132.48c22.34,0,42.59,4.22,57.02,11.89c10.31,5.48,22.61,15.39,22.61,31.48c0,16.1-12.29,26.01-22.61,31.48
		c-14.43,7.66-34.68,11.89-57.02,11.89c-28.32,0-76.32-5.67-79.64-43.63c-0.76-8.65,1.77-16.21,7.5-22.46
		C54.66,140.01,80.95,132.48,114.77,132.48 M114.77,129.48c-45.63,0-85.48,13.74-82.63,46.37c2.85,32.63,36.99,46.37,82.63,46.37
		s82.63-17.17,82.63-46.37C197.4,146.65,160.41,129.48,114.77,129.48L114.77,129.48z"/>
</g>
<g>
	<path class="st0" d="M113.41,204.54c-42.48,0-67.08-11.43-69.25-32.18c-0.6-5.71,1.09-10.82,5.01-15.17
		c9.68-10.75,33.09-16.91,64.24-16.91c40.77,0,69.25,13.21,69.25,32.13S154.18,204.54,113.41,204.54z"/>
	<path d="M113.41,140.78c19.13,0,36.5,3.03,48.91,8.53c9.05,4.01,19.83,11.27,19.83,23.11s-10.79,19.1-19.83,23.11
		c-12.41,5.5-29.79,8.53-48.91,8.53c-24.44,0-65.86-4.12-68.75-31.73c-0.58-5.57,1.06-10.54,4.88-14.79
		C59.12,146.89,82.4,140.78,113.41,140.78 M113.41,139.78c-38.52,0-72.15,9.67-69.75,32.63c2.41,22.96,31.23,32.63,69.75,32.63
		c38.52,0,69.75-12.09,69.75-32.63C183.15,151.87,151.93,139.78,113.41,139.78L113.41,139.78z"/>
</g>
<line class="st1" x1="33.57" y1="175.85" x2="33.57" y2="344.15"/>
<line class="st1" x1="195.98" y1="175.85" x2="193.13" y2="344.15"/>
<g>
	<path d="M114.77,382.16c-28.83,0-77.71-5.85-81.13-45c-0.79-9.09,1.86-17.03,7.89-23.6c12.31-13.43,39.01-21.14,73.25-21.14
		c22.58,0,43.08,4.28,57.72,12.06c15.31,8.13,23.41,19.48,23.41,32.81s-8.09,24.68-23.41,32.81
		C157.85,377.87,137.35,382.16,114.77,382.16z"/>
	<path d="M114.77,293.92c22.34,0,42.59,4.22,57.02,11.89c10.31,5.48,22.61,15.39,22.61,31.48c0,16.1-12.29,26.01-22.61,31.48
		c-14.43,7.66-34.68,11.89-57.02,11.89c-28.32,0-76.32-5.67-79.64-43.63c-0.76-8.65,1.77-16.21,7.5-22.46
		C54.66,301.44,80.95,293.92,114.77,293.92 M114.77,290.92c-45.63,0-85.48,13.74-82.63,46.37c2.85,32.63,36.99,46.37,82.63,46.37
		s82.63-17.17,82.63-46.37C197.4,308.09,160.41,290.92,114.77,290.92L114.77,290.92z"/>
</g>
<g>
	<path class="st0" d="M113.41,365.98c-42.48,0-67.08-11.43-69.25-32.18c-0.6-5.71,1.09-10.82,5.01-15.17
		c9.68-10.74,33.09-16.91,64.24-16.91c40.77,0,69.25,13.21,69.25,32.13S154.18,365.98,113.41,365.98z"/>
	<path d="M113.41,302.22c19.13,0,36.5,3.03,48.91,8.53c9.05,4.01,19.83,11.27,19.83,23.11s-10.79,19.1-19.83,23.11
		c-12.41,5.5-29.79,8.53-48.91,8.53c-24.44,0-65.86-4.12-68.75-31.73c-0.58-5.57,1.06-10.54,4.88-14.79
		C59.12,308.32,82.4,302.22,113.41,302.22 M113.41,301.22c-38.52,0-72.15,9.67-69.75,32.63s31.23,32.63,69.75,32.63
		c38.52,0,69.75-12.09,69.75-32.63C183.15,313.31,151.93,301.22,113.41,301.22L113.41,301.22z"/>
</g>
<g>
	<path class="st2" d="M415.33,434.88c-8.57,0-16.93-1.61-24.86-4.78l-168.35-67.3c-16.29-6.51-28.84-18.82-35.34-34.66
		c-6.21-15.13-6.04-31.67,0.47-46.57l2.46-5.63c10.12-23.16,33.71-38.12,60.09-38.12c8.57,0,16.93,1.61,24.86,4.78l168.35,67.3
		c16.29,6.51,28.84,18.82,35.34,34.66c6.21,15.13,6.04,31.67-0.47,46.57l-2.46,5.63C465.3,419.91,441.71,434.88,415.33,434.88z"/>
	<path d="M249.8,237.7v0.25h0c8.55,0,16.9,1.61,24.82,4.77l168.35,67.3c16.26,6.5,28.78,18.78,35.27,34.59
		c6.19,15.1,6.03,31.61-0.47,46.47l-2.46,5.63c-5.01,11.46-13.43,21.11-24.35,27.91c-10.66,6.63-22.98,10.14-35.62,10.14
		c-8.55,0-16.9-1.6-24.82-4.77l-168.35-67.3c-16.26-6.5-28.78-18.78-35.27-34.59c-6.19-15.1-6.03-31.61,0.47-46.47l2.46-5.63
		c5.01-11.46,13.43-21.11,24.35-27.91c10.66-6.63,22.98-10.14,35.62-10.14L249.8,237.7 M249.8,237.7c-25.48,0-49.8,14.4-60.2,38.19
		l-2.46,5.63c-13.8,31.57,1.92,68.2,34.93,81.39l168.35,67.3c8.13,3.25,16.58,4.79,24.91,4.79c25.48,0,49.8-14.4,60.2-38.19
		l2.46-5.63c13.8-31.57-1.92-68.2-34.93-81.39l-168.35-67.3C266.58,239.24,258.13,237.7,249.8,237.7L249.8,237.7z"/>
</g>
<g>
	<path class="st2" d="M362.22,334.03c-10.94,0-21.66-2.06-31.84-6.14c-20.82-8.32-36.82-23.96-45.06-44.05
		c-7.86-19.17-7.62-40.19,0.68-59.18c12.87-29.44,42.76-48.46,76.16-48.46c10.95,0,21.66,2.06,31.85,6.14
		c20.82,8.32,36.82,23.96,45.06,44.05c7.86,19.17,7.62,40.19-0.68,59.18C425.51,315.01,395.62,334.03,362.22,334.03z"/>
	<path d="M362.16,176.09v0.25c10.92,0,21.62,2.06,31.79,6.13c20.79,8.31,36.76,23.93,44.99,43.98c7.85,19.14,7.61,40.12-0.68,59.08
		c-12.85,29.39-42.7,48.38-76.04,48.38c-10.93,0-21.63-2.06-31.8-6.13c-20.79-8.31-36.76-23.93-44.99-43.98
		c-7.85-19.14-7.61-40.12,0.68-59.08c12.85-29.39,42.69-48.38,76.04-48.38L362.16,176.09 M362.16,176.09
		c-32.34,0-63.03,18.24-76.27,48.53c-17.6,40.26,2.3,86.55,44.44,103.39c10.43,4.17,21.25,6.15,31.89,6.15
		c32.34,0,63.03-18.24,76.27-48.53c17.6-40.26-2.3-86.55-44.44-103.39C383.61,178.06,372.8,176.08,362.16,176.09L362.16,176.09z"/>
</g>
<polyline class="st3" points="210.96,60.78 143.53,136.87 210.96,195.57 "/>
<line class="st4" x1="271.85" y1="23" x2="211.77" y2="242.83"/>
<polyline class="st5" points="285.96,84.83 330.29,149.13 272.83,195.57 "/>
</svg>
