<?xml version="1.0" encoding="utf-8"?>
<!-- Generator: Adobe Illustrator 23.0.1, SVG Export Plug-In . SVG Version: 6.00 Build 0)  -->
<svg version="1.1" id="Layer_1" xmlns="http://www.w3.org/2000/svg" xmlns:xlink="http://www.w3.org/1999/xlink" x="0px" y="0px"
	 viewBox="0 0 2869 1074" style="enable-background:new 0 0 2869 1074;" xml:space="preserve">
<style type="text/css">
	.st0{fill:#FFFFFF;stroke:#000000;stroke-miterlimit:10;}
	.st1{fill:#FFFFFF;stroke:#000000;stroke-width:8;stroke-miterlimit:10;}
	.st2{fill:#0071BC;}
	.st3{fill:#29ABE2;}
	.st4{fill:#2E3192;}
	.st5{fill:#F7931E;}
	.st6{fill:#FCEE21;}
</style>
<path class="st0" d="M1447.5,714.5"/>
<path class="st0" d="M788.5,733.5"/>
<path class="st1" d="M22,700.5h316.57c13.23,0,23.95-10.72,23.95-23.95v-290.6c0-13.23,10.72-23.95,23.95-23.95h341.97
	c13.23,0,23.95,10.72,23.95,23.95v290.6c0,13.23,10.72,23.95,23.95,23.95h363.47c13.5,0,24.34-11.15,23.94-24.65l-8.43-289.2
	c-0.39-13.5,10.44-24.65,23.94-24.65h330.67h37.02c13.02,0,23.66,10.41,23.95,23.43l6.38,291.64c0.28,13.02,10.92,23.43,23.95,23.43
	h347.42c13.23,0,23.95-10.72,23.95-23.95v-290.6c0-13.23,10.72-23.95,23.95-23.95h367.88c13.23,0,23.95,10.72,23.95,23.95v290.6
	c0,13.23,10.72,23.95,23.95,23.95H2835"/>
<rect x="359" y="367" class="st2" width="9" height="321"/>
<rect x="21.5" y="695.5" class="st3" width="325" height="11"/>
<rect x="764" y="693" class="st4" width="389" height="12"/>
<rect x="1590" y="693" class="st5" width="370" height="12"/>
<rect x="1815" y="527" transform="matrix(-1.836970e-16 1 -1 -1.836970e-16 2505 -1439)" class="st5" width="314" height="12"/>
<rect x="2403" y="693" class="st6" width="434" height="12"/>
<rect x="537.5" y="177.5" transform="matrix(-1.836970e-16 1 -1 -1.836970e-16 909.5 -185.5)" class="st2" width="20" height="369"/>
<rect x="746" y="377" class="st2" width="9" height="321"/>
<path class="st4" d="M1155.76,685.25l-5.2-306.28c-0.05-3.22,2.51-5.87,5.73-5.93l0.34-0.01c3.22-0.05,5.87,2.51,5.93,5.73
	l5.2,306.28c0.05,3.22-2.51,5.87-5.73,5.93l-0.34,0.01C1158.47,691.03,1155.82,688.47,1155.76,685.25z"/>
<path class="st4" d="M1571.76,685.25l-5.2-306.28c-0.05-3.22,2.51-5.87,5.73-5.93l0.34-0.01c3.22-0.05,5.87,2.51,5.93,5.73
	l5.2,306.28c0.05,3.22-2.51,5.87-5.73,5.93l-0.34,0.01C1574.47,691.03,1571.82,688.47,1571.76,685.25z"/>
<rect x="2229" y="534" transform="matrix(-1.836970e-16 1 -1 -1.836970e-16 2928 -1848)" class="st6" width="318" height="12"/>
</svg>
