<?xml version="1.0" encoding="UTF-8" standalone="no"?><!DOCTYPE svg PUBLIC "-//W3C//DTD SVG 1.1//EN" "http://www.w3.org/Graphics/SVG/1.1/DTD/svg11.dtd">
<svg width="100%" height="100%" viewBox="0 0 1007 1361" version="1.1" 
    xmlns="http://www.w3.org/2000/svg" 
    xmlns:xlink="http://www.w3.org/1999/xlink" xml:space="preserve" style="fill-rule:evenodd;clip-rule:evenodd;stroke-linejoin:round;stroke-miterlimit:1.41421;">
    <rect id="Artboard1" x="0" y="0" width="1006.77" height="1360.12" style="fill:none;"/>
    <path d="M406.189,240.544c32.411,17.625 64.256,26.139 79.205,22.664c37.485,-8.717 40.93,-132.426 11.928,-181.197c-29.004,-48.77 -178.107,-70.027 -185.622,26.603c-2.609,33.537 13.001,63.466 36.064,87.888l-41.353,173.883l120.121,0l-20.343,-129.841Z" style="fill:#b28b67;"/>
    <path d="M338.534,218.253c-15.077,-60.508 -58.027,-101.756 -51.468,-128.801c6.561,-27.045 34.967,-33.637 34.967,-33.637c0,0 14.693,-53.619 94.768,-45.613c80.076,8.007 128.95,38.007 107.843,104.021c-19.401,0 -42.823,-6.329 -75.211,4.515c-15.414,5.163 -22.049,32.014 -22.049,32.014l-14.636,0c0,0 -21.308,-31.866 -42.018,-23.42c-20.71,8.447 -9.416,41.032 -9.416,41.032l-7.21,49.889l-15.57,0Z" style="fill:#191847;"/>
    <path d="M137.97,919.908l319.638,0l41.882,436.713l-475.808,0l114.288,-436.713Z" style="fill:#c5cfd6;"/>
    <path d="M137.97,919.908l98.307,0l58.838,436.713l-271.433,0l114.288,-436.713Z" style="fill-opacity:0.0980392;"/>
    <path d="M633.227,1006.43c-35.919,64.845 -92.046,222.252 -92.046,222.252l47.651,18.527c0,0 120.9,-165.459 194.788,-278.568c-3.443,25.463 -6.948,54.13 -10.199,84.266c-7.698,71.39 -0.004,225.628 4.138,270.177c2.604,28.011 47.3,22.139 51.473,-0.071c0.707,-3.765 3.587,-16.965 7.879,-36.665c21.083,-96.616 76.232,-349.47 76.329,-411.383c0.033,-24.913 -57.144,-47.293 -91.22,-29.874c-23.409,-21.262 -67.713,-33.516 -93.165,1.606c-16.18,22.327 -54.626,85.715 -95.628,159.733Z" style="fill:#b28b67;"/>
    <path d="M544.588,1170.4l163.544,-329.784c39.179,-53.648 149.032,10.916 135.67,42.031c-30.338,70.642 -184.607,299.336 -193.644,320.385l-105.57,-32.632Z" style="fill:#1f28cf;"/>
    <path d="M543.886,1204.69c-0.715,-0.899 -2.15,-1.041 -3.232,-0.307c-5.412,3.682 -20.469,14.265 -25.03,20.99c-5.595,8.251 -13.102,25.666 -13.102,25.666c11.243,5.529 202.096,99.316 202.096,99.316c0,0 22.914,-18.291 7.141,-28.402c-15.774,-10.11 -26.034,-17.047 -26.034,-17.047l-71.617,-83.996c-0.359,-0.415 -1.05,-0.474 -1.579,-0.131l-16.927,11.093c0,0 -19.944,-1.48 -29.767,-6.31c-8.003,-3.93 -18.378,-16.385 -21.949,-20.872Z" style="fill:#e4e4e4;"/>
    <path d="M546.493,1204.88c-0.845,-0.781 -2.131,-0.77 -2.97,0.071c-4.207,4.191 -16.044,16.42 -18.726,23.725c-3.276,8.926 -6.07,27.371 -6.07,27.371c12.162,4.629 218.595,83.144 218.595,83.144c0,0 17.326,-20.742 -0.33,-29.633c-17.657,-8.891 -29.233,-15.059 -29.233,-15.059l-89.847,-79.319c-0.418,-0.367 -1.04,-0.344 -1.453,0.047l-13.432,12.869c0,0 -19.474,0.296 -30.099,-3.753c-8.754,-3.327 -22.03,-15.331 -26.435,-19.463Z" style="fill:#1a1616;"/>
    <path d="M772.215,1298.78c-1.03,-0.426 -2.179,0.047 -2.675,1.125c-2.488,5.398 -9.389,21.108 -9.389,28.922c0,9.518 3.729,27.797 3.729,27.797c12.983,0 233.357,0 233.357,0c0,0 9.102,-25.595 -10.504,-27.631c-19.594,-2.049 -32.557,-3.694 -32.557,-3.694l-111.474,-42.3c-0.507,-0.189 -1.057,0.047 -1.305,0.556l-8.163,16.859c0,0 -18.145,7.21 -29.488,7.21c-9.387,0 -26.061,-6.583 -31.531,-8.844Z" style="fill:#1a1616;"/>
    <path d="M924.704,900.301c0,93.566 -52.206,311.816 -52.238,332.428l-112.315,0.071c0,0 24.658,-292.121 17.488,-295.267c-7.171,-3.148 -293.971,24.373 -379.986,24.373c-124.036,0 -175.347,-66.58 -179.51,-189.918l245.708,0c50.03,4.557 310.983,49.36 407.893,64.763c41.496,6.593 52.96,37.776 52.96,63.55Z" style="fill:#2b44ff;"/>
    <path d="M775.909,617.255l-131.953,-82.451l-29.169,61.357l130.668,46.107c36.955,36.938 57.619,52.337 61.993,46.196c3.688,-5.178 0.806,-10.026 -1.85,-14.49c-2.069,-3.479 -3.999,-6.725 -2.578,-9.714c3.246,-6.828 28.07,-6.108 51.588,-4.569c23.53,1.539 16.672,-7.367 10.999,-11.765c-24.005,-12.231 -53.91,-22.453 -89.698,-30.671Zm-60.312,51.657l-127.578,-91.428l-27.743,62.429l126.13,53.632c35.811,39.986 55.804,56.886 59.982,50.701c3.523,-5.214 0.718,-10.374 -1.866,-15.128c-2.013,-3.703 -3.89,-7.158 -2.539,-10.2c3.087,-6.947 27.003,-5.107 49.67,-2.473c22.667,2.634 16.012,-6.916 10.524,-11.733c-23.2,-13.757 -52.06,-25.69 -86.58,-35.8Z" style="fill:#b28b67;"/>
    <path d="M439.003,312.76c71.857,114.01 175.765,201.407 326.405,292.26l-57.039,54.725c-168.194,-53.187 -256.963,-85.277 -300.556,-192.994c-10.94,-27.035 -18.587,-113.216 -25.147,-158.561l56.337,4.57Z" style="fill:#2026a2;"/>
    <path d="M238.337,770.533l233.229,0l0,-167.295c0,0 -36.164,-142.002 -38.534,-266.203c-0.08,-4.221 -2.933,-23.753 -7.1,-29.691c-29.112,-12.955 -69.842,-12.955 -69.842,-12.955c-76.3,122.621 -102.685,273.592 -117.753,476.144Z" style="fill:#f2f2f2;"/>
    <path d="M372.182,779.224l-169.836,0c-26.974,-154.252 43.919,-368.128 109.642,-476.004c2.509,-4.12 7.853,-11.886 20.439,-11.886l49.35,0c5.617,14.393 11.027,28.781 16.206,43.118c6.809,-4.336 13.77,-9.074 20.842,-14.266c8.589,12.927 17.711,27.745 27.724,44.013c44.267,71.918 105.99,172.198 216.51,262.939l-59.656,49.807c-49.362,-23.585 -96.763,-48.46 -139.497,-75.132c9.13,105.22 -15.183,177.411 -91.724,177.411Z" style="fill:#1f28cf;"/>
</svg>