<svg width="1198" height="700" viewBox="0 0 1198 700" fill="none" 
    xmlns="http://www.w3.org/2000/svg">
    <rect width="1198" height="700" fill="#E5E5E5"/>
    <path fill-rule="evenodd" clip-rule="evenodd" d="M287.647 503.745H374.905L386.339 641.234H256.447L287.647 503.745Z" fill="#C5CFD6"/>
    <path fill-rule="evenodd" clip-rule="evenodd" d="M287.647 503.745H314.484L330.546 641.234H256.447L287.647 503.745Z" fill="black" fill-opacity="0.1"/>
    <path fill-rule="evenodd" clip-rule="evenodd" d="M415.816 613.441C408.184 583.065 420.029 570.26 418.285 556.224C415.299 532.191 413.289 511.016 413.014 503.086C412.358 484.176 433.098 482.124 434.972 491.451C437.809 505.567 432.585 539.615 434.832 610.214L415.816 613.441Z" fill="#B28B67"/>
    <path fill-rule="evenodd" clip-rule="evenodd" d="M417.106 607.637L406.39 502.039C403.608 482.647 432.545 475.195 435.351 484.48C441.722 505.559 439.274 600.756 441.172 607.036L417.106 607.637Z" fill="#2F3676"/>
    <path fill-rule="evenodd" clip-rule="evenodd" d="M404.973 622.756C403.106 608.909 398.352 560.851 399.049 538.396C399.25 531.944 399.493 525.702 399.763 519.843C400.566 502.429 431.31 500.747 429.816 517.344C426.096 558.679 418.702 616.764 418.221 621.772C417.546 628.79 406.147 631.458 404.973 622.756Z" fill="#B28B67"/>
    <path fill-rule="evenodd" clip-rule="evenodd" d="M404.252 619.296C403.108 618.939 401.861 619.607 401.61 620.791C401.12 623.101 400.485 626.641 400.717 628.541C401.081 631.515 402.715 637.093 402.715 637.093C405.972 636.646 461.259 629.054 461.259 629.054C461.259 629.054 462.563 620.749 457.569 620.787C452.574 620.824 449.259 620.757 449.259 620.757L420.46 611.638C419.911 611.464 419.323 611.796 419.18 612.36L417.966 617.153C417.966 617.153 413.69 620.028 410.844 620.418C409.103 620.657 406.223 619.911 404.252 619.296Z" fill="#3A6633"/>
    <path fill-rule="evenodd" clip-rule="evenodd" d="M422.027 605.633C420.933 605.138 419.622 605.646 419.242 606.791C418.501 609.025 417.479 612.463 417.5 614.378C417.533 617.377 418.54 623.119 418.54 623.119C421.824 623.079 477.569 622.39 477.569 622.39C477.569 622.39 479.782 614.303 474.817 613.722C469.853 613.141 466.568 612.663 466.568 612.663L438.972 600.037C438.446 599.797 437.827 600.053 437.623 600.596L435.888 605.206C435.888 605.206 431.323 607.531 428.454 607.566C426.697 607.588 423.918 606.489 422.027 605.633Z" fill="#3A6633"/>
    <path fill-rule="evenodd" clip-rule="evenodd" d="M387.295 512.176C387.295 512.176 336.77 503.455 319.611 500.249C287.003 494.157 277.494 475.565 283.116 435L343.195 435C355.121 438.649 442.857 480.137 442.857 480.137C453.38 485.672 451.42 501.992 449.497 507.369C449.379 507.698 442.857 589.121 442.857 589.121H396.836L387.387 516.086C387.387 516.086 388.982 512.682 387.295 512.176Z" fill="#5C63AB"/>
    <path fill-rule="evenodd" clip-rule="evenodd" d="M458.845 628.971V497.483V462.206H501.923H672.185H715.264V497.483V628.971H672.185V497.483H501.923V628.971H458.845Z" fill="#F2F2F2"/>
    <path d="M602.62 365.106L602.62 363.986L559.505 445.141L561.59 445.141L602.62 365.106Z" fill="#1A1616"/>
    <path d="M560.518 447.018L560.518 443.114L475.038 447.018L475.038 448.626L560.518 447.018Z" fill="#302A2A"/>
    <path fill-rule="evenodd" clip-rule="evenodd" d="M344.649 302.148C356.267 309.729 367.682 313.392 373.041 311.896C386.477 308.147 387.713 254.932 377.316 233.952C366.919 212.973 313.472 203.829 310.778 245.396C309.843 259.822 315.439 272.697 323.706 283.202L308.882 358H351.941L344.649 302.148Z" fill="#B28B67"/>
    <path fill-rule="evenodd" clip-rule="evenodd" d="M360.308 211.103C354.424 209.161 345.883 208.502 342.29 208.948C344.334 203.646 345.145 197.74 344.484 191.989C343.841 186.401 341.535 181.643 339.402 176.657C338.419 174.359 337.304 172.073 335.643 170.316C333.951 168.525 331.808 167.343 329.562 166.779C327.263 166.201 324.859 166.249 322.557 166.773C321.538 167.005 320.624 167.509 319.625 167.789C318.602 168.077 318.106 167.383 317.363 166.687C315.574 165.008 312.951 164.18 310.687 163.883C308.147 163.551 305.512 163.965 303.09 164.869C300.732 165.749 298.467 167.178 296.763 169.26C296.004 170.186 295.315 171.241 294.867 172.405C294.683 172.883 294.653 173.166 294.212 173.341C293.805 173.503 293.329 173.508 292.908 173.662C288.843 175.153 285.367 178.553 283.475 182.919C282.371 185.467 281.848 189.951 281.991 194.978C282.134 200.004 286.327 213.12 290.248 217.903C293.748 222.173 298.892 224.991 303.857 226.225C300.562 230.303 298.368 235.398 296.746 240.581C294.984 246.211 293.893 252.06 293.491 258.02C293.108 263.682 293.073 269.671 294.299 275.212C295.446 280.395 297.899 284.646 301.994 287.343C303.87 288.579 305.888 289.507 307.918 290.355C309.919 291.191 311.926 292.004 314.021 292.473C317.987 293.361 322.557 293.208 325.612 289.791C326.714 288.558 327.925 287.01 328.728 285.505C329.017 284.964 329.191 284.61 328.84 284.081C328.42 283.447 327.74 282.962 327.2 282.466C324.12 279.64 322.213 275.867 321.733 271.383C321.245 266.833 322.374 260.961 326.46 258.975C331.503 256.524 337.058 259.338 341.54 261.96C343.446 254.681 347.357 248.127 353.49 244.787C360.275 241.093 368.061 240.661 375.034 237.492C376.851 236.666 378.701 235.728 380.039 234.045C380.598 233.342 381.254 232.43 381.477 231.5C381.77 230.278 381.042 229.253 380.48 228.301C377.498 223.25 366.192 213.046 360.308 211.103Z" fill="#191847"/>
    <path fill-rule="evenodd" clip-rule="evenodd" d="M432.568 425.157C426.663 425.72 372.84 417.415 372.84 417.415L368.71 432.947C368.71 432.947 428.475 435.524 432.204 435.416C437.049 435.275 442.816 439.758 446.727 442.798C447.332 443.268 447.893 443.704 448.398 444.083C450.324 442.094 449.085 440.483 447.778 438.784C446.302 436.865 443.188 432.947 447.557 432.023C448.645 430.937 449.848 429.962 451.023 429.009C455.082 425.718 458.81 422.695 456.344 416.296C455.953 415.281 453.881 413.671 451.476 415.314C445.485 419.407 435.456 424.882 432.568 425.157Z" fill="#B28B67"/>
    <path fill-rule="evenodd" clip-rule="evenodd" d="M432.568 425.157C426.663 425.72 372.84 417.415 372.84 417.415L368.71 432.947C368.71 432.947 428.476 435.524 432.204 435.416C437.049 435.275 442.816 439.758 446.727 442.798C447.332 443.268 447.893 443.704 448.398 444.083C450.324 442.094 449.085 440.483 447.778 438.784C446.302 436.865 443.188 432.947 447.557 432.023C448.645 430.937 449.848 429.962 451.023 429.009C455.082 425.718 458.81 422.695 456.344 416.296C455.953 415.281 453.881 413.671 451.476 415.314C445.485 419.407 435.456 424.882 432.568 425.157Z" fill="#B28B67"/>
    <path fill-rule="evenodd" clip-rule="evenodd" d="M334.239 327.477L341.636 326.231C369.083 349.501 380.356 394.203 413.998 417.884L405.901 427.735C347.537 420.643 333.072 366.116 334.239 327.477Z" fill="#E87613"/>
    <path fill-rule="evenodd" clip-rule="evenodd" d="M301.992 418.711C301.992 418.711 346.483 418.711 367.445 418.711C370.436 418.711 369.873 414.473 369.44 412.334C364.45 387.65 344.972 361.042 344.972 325.906L326.092 323C310.476 347.648 305.076 377.996 301.992 418.711Z" fill="#DDE3E9"/>
    <path fill-rule="evenodd" clip-rule="evenodd" d="M295.695 340.552C299.217 346.838 306.414 346.438 312.631 344.529C312.444 344.946 312.257 345.365 312.07 345.786L310.799 345.748C310.799 345.748 310.782 346.723 310.862 348.539C299.797 374.046 289.077 406.826 287.116 436.076L340.685 437.788C346.59 437.788 360.732 439.414 372.725 437.788C379.606 436.855 386.888 438.481 392.635 437.788C399.222 436.994 403.784 436.076 411.349 437.788V419.644C395.963 415.158 365.151 425.061 349.47 411.22C346.839 408.898 348.923 402.966 346.675 399.246C342.304 366.007 332.128 321.991 332.128 321.991L325.846 321.637C325.422 321.571 324.954 321.537 324.44 321.537C319.137 321.537 314.885 320.605 311.138 319.783C306.56 318.779 302.735 317.94 298.669 319.169C291.274 321.404 288.775 328.203 295.695 340.552Z" fill="#FF9B21"/>
    <path fill-rule="evenodd" clip-rule="evenodd" d="M294.633 436.342C298.492 427.245 302.45 416.626 306.259 405.66C307.677 417.736 310.038 429.866 313.969 436.342H294.633Z" fill="black" fill-opacity="0.1"/>
</svg>
