<svg width="357" height="104" viewBox="0 0 357 104" fill="none" 
    xmlns="http://www.w3.org/2000/svg">
    <path d="M172.177 44.1982H154.582V93H147.4V44.1982H129.842V38.2578H172.177V44.1982ZM196.014 58.5605C194.961 58.3851 193.821 58.2974 192.593 58.2974C188.031 58.2974 184.935 60.2399 183.306 64.125V93H176.351V52.3193H183.118L183.231 57.019C185.512 53.3846 188.745 51.5674 192.931 51.5674C194.285 51.5674 195.312 51.7428 196.014 52.0938V58.5605ZM226.055 93C225.654 92.1979 225.328 90.7692 225.077 88.7139C221.844 92.0726 217.984 93.752 213.497 93.752C209.487 93.752 206.191 92.624 203.609 90.3682C201.052 88.0872 199.774 85.2048 199.774 81.7207C199.774 77.4847 201.378 74.2012 204.586 71.8701C207.82 69.514 212.357 68.3359 218.197 68.3359H224.964V65.1401C224.964 62.7088 224.237 60.7788 222.784 59.3501C221.33 57.8963 219.187 57.1694 216.354 57.1694C213.873 57.1694 211.793 57.7961 210.113 59.0493C208.434 60.3026 207.594 61.819 207.594 63.5986H200.601C200.601 61.5684 201.315 59.6133 202.744 57.7334C204.198 55.8285 206.153 54.3245 208.609 53.2217C211.091 52.1188 213.81 51.5674 216.768 51.5674C221.455 51.5674 225.127 52.7454 227.784 55.1016C230.441 57.4326 231.82 60.6535 231.92 64.7642V83.4878C231.92 87.2225 232.396 90.1927 233.349 92.3984V93H226.055ZM214.512 87.6987C216.693 87.6987 218.761 87.1348 220.716 86.0068C222.671 84.8789 224.087 83.4126 224.964 81.6079V73.2612H219.513C210.991 73.2612 206.729 75.7552 206.729 80.7432C206.729 82.9238 207.456 84.6283 208.91 85.8564C210.364 87.0846 212.231 87.6987 214.512 87.6987ZM255.644 83.563L265.72 52.3193H272.826L258.238 93H252.937L238.199 52.3193H245.305L255.644 83.563Z" fill="#1A8FC0"/>
    <path d="M328 73C328 78.876 325.806 84.5642 321.803 89.0662C317.801 93.5681 312.245 96.5961 306.111 97.6186C299.978 98.6411 293.658 97.5927 288.263 94.6575C282.867 91.7223 278.739 87.0879 276.605 81.5677C274.47 76.0476 274.465 69.9945 276.59 64.471C278.715 58.9476 282.834 54.3067 288.225 51.3631C293.615 48.4195 299.933 47.3613 306.068 48.3743C312.204 49.3872 317.765 52.4065 321.775 56.9023L319.014 59.0946C315.549 55.2112 310.746 52.6031 305.446 51.7281C300.146 50.8531 294.689 51.7672 290.033 54.3099C285.376 56.8526 281.818 60.8614 279.982 65.6326C278.147 70.4038 278.151 75.6325 279.995 80.4009C281.839 85.1692 285.405 89.1725 290.065 91.7079C294.726 94.2434 300.185 95.149 305.483 94.2658C310.781 93.3825 315.581 90.7669 319.038 86.8781C322.496 82.9893 324.391 78.0757 324.391 73H328Z" fill="#5B9647"/>
    <ellipse cx="301.5" cy="73" rx="21.5" ry="21" fill="#4995CD"/>
    <path d="M355.821 98H348.865V57.3193H355.821V98ZM348.301 46.5288C348.301 45.4009 348.64 44.4484 349.316 43.6714C350.018 42.8944 351.046 42.5059 352.399 42.5059C353.753 42.5059 354.781 42.8944 355.482 43.6714C356.184 44.4484 356.535 45.4009 356.535 46.5288C356.535 47.6567 356.184 48.5967 355.482 49.3486C354.781 50.1006 353.753 50.4766 352.399 50.4766C351.046 50.4766 350.018 50.1006 349.316 49.3486C348.64 48.5967 348.301 47.6567 348.301 46.5288Z" fill="#4A32DF"/>
    <ellipse cx="55.5" cy="52" rx="55.5" ry="52" fill="#C4C4C4"/>
</svg>
