<?xml version="1.0" encoding="utf-8"?>
<!-- Generator: Adobe Illustrator 23.0.1, SVG Export Plug-In . SVG Version: 6.00 Build 0)  -->
<svg version="1.1" id="Layer_1" 
	xmlns="http://www.w3.org/2000/svg" 
	xmlns:xlink="http://www.w3.org/1999/xlink" x="0px" y="0px" viewBox="0 0 1920 1080" style="enable-background:new 0 0 1920 1080;" xml:space="preserve">
	<style type="text/css">
	.st0{fill:#FFFFFF;stroke:#000000;stroke-miterlimit:10;}
	.st1{fill:none;stroke:#000000;stroke-miterlimit:10;}
	</style>
	<path class="st0" d="M1069.81,505.6c-65.35,117.01-110.45,302.55-235.5,260.25c-116.87-39.54-176.06-144.3-234.91-256.65
	c-49.33-94.18,105.12-268.15,234.91-256.65C968.28,264.42,1148.51,364.69,1069.81,505.6z"/>
	<path class="st0" d="M980.19,490.4C966.77,567.6,920.62,671,847.91,671S742.82,569.26,730.46,491.82
	c-11.13-69.68,53.12-139.54,123.63-139.36C926.8,352.63,993.79,412.18,980.19,490.4z"/>
	<path class="st0" d="M980.57,476.56c6.99-1.9,23.61-35.36,18.46,24.77c-1.26,14.76,0.13,29.76-6.86,31.66
	c-6.99,1.9-15.25-9.19-18.46-24.77"/>
	<path class="st0" d="M877.5,604.5c-1.55,14.3-19.43,33.83-38,34c-16.35,0.15-36.68-19.94-37.34-34.34"/>
	<path class="st0" d="M735.48,515.38c-5.93,4.67-10.98,42.76-24.97-15.48c-3.43-14.29-9.43-27.71-3.5-32.38
	c5.93-4.67,17.11,2.27,24.97,15.48"/>
	<path class="st1" d="M719.95,483.29c-19.16-65.42,55.81-136.26,131.66-143.63c87.78-8.53,144.65,88.17,144.65,143.63"/>
	<line class="st1" x1="996.26" y1="483.29" x2="886.23" y2="621.23"/>
	<path class="st0" d="M925.56,581.47l-34.16,42.82c-2,2.51-5.38,2.67-7.56,0.37l0,0c-2.18-2.3-2.32-6.19-0.33-8.7l34.16-42.82
	c2-2.51,5.38-2.67,7.56-0.37v0C927.41,575.07,927.55,578.96,925.56,581.47z"/>
	<line class="st1" x1="882.52" y1="624.07" x2="924.56" y2="572.88"/>
	<line class="st1" x1="885" y1="626.92" x2="927.03" y2="575.72"/>
	<path class="st1" d="M758.5,466.5c0-12.15,9.85-22,22-22s22,9.85,22,22"/>
	<path class="st1" d="M881.5,466.5c0-12.15,9.85-22,22-22s22,9.85,22,22"/>
	<circle class="st1" cx="904" cy="466" r="8.5"/>
	<circle class="st1" cx="903.5" cy="465.5" r="4"/>
	<circle class="st1" cx="781" cy="466" r="8.5"/>
	<circle class="st1" cx="780.5" cy="465.5" r="4"/>
</svg>
