<?xml version="1.0" encoding="utf-8"?>
<!-- Generator: Adobe Illustrator 23.0.1, SVG Export Plug-In . SVG Version: 6.00 Build 0)  -->
<svg version="1.1" id="Layer_1" xmlns="http://www.w3.org/2000/svg" xmlns:xlink="http://www.w3.org/1999/xlink" x="0px" y="0px"
	 viewBox="0 0 394 250" style="enable-background:new 0 0 394 250;" xml:space="preserve">
<style type="text/css">
	.st0{fill:#3FA9F5;}
	.st1{fill:#FFFFFF;}
	.st2{font-family:'MyriadPro-Regular';}
	.st3{font-size:68px;}
	.st4{fill:none;stroke:#000000;stroke-width:0.75;stroke-miterlimit:10;}
	.st5{font-size:40px;}
</style>
<path class="st0" d="M0,0l23.6,58.9l119.2,129.1l20.4,12.4c0,0,62.3,23.8,69.8,28.9s51.5,13.4,51.5,13.4s76.2,16.5,109.5,0"/>
<rect x="163.2" class="st0" width="230.8" height="194.1"/>
<rect x="7.5" class="st0" width="156.7" height="12.4"/>
<rect x="71.9" y="48.5" class="st0" width="128.8" height="57.8"/>
<rect x="34.3" y="12.4" class="st0" width="128.8" height="57.8"/>
<rect x="2.2" class="st0" width="19.3" height="4.1"/>
<rect x="15" y="10.3" class="st0" width="29" height="11.4"/>
<rect x="303.8" y="187.9" class="st0" width="90.2" height="54.7"/>
<text transform="matrix(1 0 0 1 55.7647 70.2098)" class="st1 st2 st3">Application</text>
<text transform="matrix(1 0 0 1 163.1799 187.9296)" class="st4 st2 st5">Introduction</text>
</svg>
