<svg id="Layer_1" data-name="Layer 1" 
    xmlns="http://www.w3.org/2000/svg" 
    xmlns:xlink="http://www.w3.org/1999/xlink" viewBox="0 0 459.02 531">
    <defs>
        <style>.cls-1,.cls-8{fill:#ff0;}.cls-1,.cls-2,.cls-3,.cls-4,.cls-5,.cls-6,.cls-7,.cls-8,.cls-9{stroke:#000;stroke-miterlimit:10;}.cls-1{stroke-width:6px;}.cls-2{stroke-width:3px;fill:url(#Sky);}.cls-3,.cls-4,.cls-5,.cls-6{stroke-width:4px;}.cls-3{fill:url(#linear-gradient);}.cls-4{fill:url(#linear-gradient-2);}.cls-5{fill:url(#linear-gradient-3);}.cls-6{fill:url(#linear-gradient-4);}.cls-7{fill:none;}.cls-7,.cls-8,.cls-9{stroke-width:2px;}</style>
        <linearGradient id="Sky" x1="117.02" y1="391.25" x2="324.02" y2="391.25" gradientUnits="userSpaceOnUse">
            <stop offset="0" stop-color="#cce0f4"/>
            <stop offset="0.06" stop-color="#c3dcf2"/>
            <stop offset="0.17" stop-color="#a9d2ee"/>
            <stop offset="0.31" stop-color="#80c2e7"/>
            <stop offset="0.46" stop-color="#47acde"/>
            <stop offset="0.57" stop-color="#1e9cd7"/>
            <stop offset="0.87" stop-color="#0075be"/>
            <stop offset="0.99" stop-color="#005b97"/>
        </linearGradient>
        <linearGradient id="linear-gradient" x1="125.52" y1="427.5" x2="314.52" y2="427.5" gradientUnits="userSpaceOnUse">
            <stop offset="0" stop-color="#fff"/>
            <stop offset="0.86" stop-color="#302c2d"/>
            <stop offset="1"/>
        </linearGradient>
        <linearGradient id="linear-gradient-2" x1="152.52" y1="508" x2="279.52" y2="508" xlink:href="#linear-gradient"/>
        <linearGradient id="linear-gradient-3" x1="143.52" y1="481.5" x2="297.52" y2="481.5" xlink:href="#linear-gradient"/>
        <linearGradient id="linear-gradient-4" x1="134.52" y1="454.5" x2="305.52" y2="454.5" xlink:href="#linear-gradient"/>
    </defs>
    <title>bulb</title>
    <path class="cls-1" d="M444,347c-9-90,70.52-162,157.5-162S777,257,759,347s-63,72-63,126-207,54-207,0S453,437,444,347Z" transform="translate(-371.98 -122)"/>
    <rect class="cls-2" x="117.02" y="368.5" width="207" height="45.5" rx="8.95"/>
    <rect class="cls-3" x="125.52" y="414.5" width="189" height="26" rx="9.74"/>
    <path class="cls-4" d="M161.29,495.5H270.76a8.77,8.77,0,0,1,8.77,8.77v7.47a8.77,8.77,0,0,1-8.77,8.77H163.34a10.82,10.82,0,0,1-10.82-10.82v-5.42a8.77,8.77,0,0,1,8.77-8.77Z"/>
    <rect class="cls-5" x="143.52" y="468.5" width="154" height="26" rx="8.8"/>
    <rect class="cls-6" x="134.52" y="441.5" width="171" height="26" rx="9.27"/>
    <line class="cls-7" x1="395.52" y1="96.21" x2="430.55" y2="54"/>
    <line class="cls-7" x1="414.56" y1="204.09" x2="456" y2="223.73"/>
    <line class="cls-7" x1="405.95" y1="248.45" x2="446.81" y2="271.29"/>
    <line class="cls-7" x1="395.63" y1="293.34" x2="431.56" y2="333.32"/>
    <line class="cls-7" x1="415.98" y1="164.21" x2="459.02" y2="164.21"/>
    <line class="cls-7" x1="51.68" y1="245.23" x2="0.02" y2="246.48"/>
    <line class="cls-7" x1="52.55" y1="195.49" x2="0.91" y2="193.17"/>
    <line class="cls-7" x1="55.29" y1="144.31" x2="5.83" y2="121.96"/>
    <line class="cls-7" x1="58.16" y1="286.71" x2="8.66" y2="308.86"/>
    <line class="cls-8" x1="200.61" y1="45.53" x2="197.24" y2="0.08"/>
    <line class="cls-8" x1="250.38" y1="45.5" x2="250.57"/>
    <line class="cls-8" x1="301.65" y1="47.08" x2="321.96" y2="3.18"/>
    <line class="cls-8" x1="159.41" y1="51.91" x2="135.24" y2="8.69"/>
    <line class="cls-7" x1="31.87" y1="45" x2="72.39" y2="93.03"/>
    <path class="cls-9" d="M606,642.5c0,5.25-8.06,9.5-18,9.5s-18-4.25-18-9.5" transform="translate(-371.98 -122)"/>
</svg>