<?xml version="1.0" encoding="utf-8"?>
<!-- Generator: Adobe Illustrator 23.0.1, SVG Export Plug-In . SVG Version: 6.00 Build 0)  -->
<svg version="1.1" id="Layer_1" xmlns="http://www.w3.org/2000/svg" xmlns:xlink="http://www.w3.org/1999/xlink" x="0px" y="0px"
	 viewBox="0 0 1974 1080" style="enable-background:new 0 0 1974 1080;" xml:space="preserve">
<style type="text/css">
	.st0{fill:#FFFFFF;stroke:#000000;stroke-miterlimit:10;}
	.st1{fill:none;stroke:#000000;stroke-miterlimit:10;}
</style>
<path class="st0" d="M563.96,384.42c-6.35,35.43-28.17,82.88-62.57,82.88s-49.7-46.69-55.55-82.22
	c-5.26-31.98,25.12-64.03,58.47-63.95C538.71,321.2,570.39,348.52,563.96,384.42z"/>
<path class="st0" d="M564.14,378.07c3.31-0.87,11.17-16.23,8.73,11.37c-0.6,6.77,0.06,13.65-3.24,14.53s-7.22-4.22-8.73-11.37"/>
<path class="st0" d="M515.39,436.78c-0.74,6.56-9.19,15.53-17.97,15.6c-7.73,0.07-17.35-9.15-17.66-15.76"/>
<path class="st0" d="M448.22,395.88c-2.8,2.14-5.19,19.62-11.81-7.1c-1.62-6.56-4.46-12.72-1.65-14.86c2.8-2.14,8.09,1.04,11.81,7.1
	"/>
<path class="st1" d="M440.87,381.15c-9.06-30.02,26.4-62.53,62.28-65.91c41.52-3.92,68.42,40.46,68.42,65.91"/>
<line class="st1" x1="571.56" y1="381.15" x2="519.52" y2="444.45"/>
<path class="st0" d="M538.12,426.21l-16.16,19.65c-0.95,1.15-2.55,1.23-3.58,0.17l0,0c-1.03-1.06-1.1-2.84-0.15-3.99l16.16-19.65
	c0.95-1.15,2.55-1.23,3.58-0.17l0,0C539,423.27,539.07,425.06,538.12,426.21z"/>
<line class="st1" x1="517.77" y1="445.76" x2="537.65" y2="422.26"/>
<line class="st1" x1="518.94" y1="447.06" x2="538.82" y2="423.57"/>
<path class="st1" d="M459.11,373.45c0-5.58,4.66-10.1,10.41-10.1c5.75,0,10.41,4.52,10.41,10.1"/>
<path class="st1" d="M517.28,373.45c0-5.58,4.66-10.1,10.41-10.1s10.41,4.52,10.41,10.1"/>
<ellipse class="st1" cx="527.93" cy="373.22" rx="4.02" ry="3.9"/>
<ellipse class="st1" cx="527.69" cy="372.99" rx="1.89" ry="1.84"/>
<ellipse class="st1" cx="469.75" cy="373.22" rx="4.02" ry="3.9"/>
<ellipse class="st1" cx="469.51" cy="372.99" rx="1.89" ry="1.84"/>
<line class="st1" x1="347" y1="592.64" x2="372.18" y2="514.42"/>
<line class="st1" x1="371.63" y1="514.89" x2="466.83" y2="466.9"/>
<line class="st1" x1="539.78" y1="466.9" x2="628.82" y2="508.16"/>
<line class="st1" x1="628.13" y1="508.16" x2="654" y2="588.73"/>
<path class="st1" d="M540.18,467.29c-23.43,16.27-53.61,19.59-74.24-0.61"/>
<path class="st1" d="M347,588.73c-0.13,25.76,64.57,33.42,153.5,35.2c77.97,1.56,150.98,6.77,153.5-35.2"/>
<line class="st1" x1="484.47" y1="478.73" x2="497.29" y2="502.41"/>
<line class="st1" x1="514.93" y1="478.73" x2="497.29" y2="502.41"/>
<rect x="568.63" y="526.87" class="st1" width="47.29" height="7.1"/>
<ellipse class="st1" cx="500.5" cy="498.5" rx="209" ry="200"/>
</svg>
