<?xml version="1.0" encoding="utf-8"?>
<!-- Generator: Adobe Illustrator 23.0.1, SVG Export Plug-In . SVG Version: 6.00 Build 0)  -->
<svg version="1.1" id="Layer_1" xmlns="http://www.w3.org/2000/svg" xmlns:xlink="http://www.w3.org/1999/xlink" x="0px" y="0px"
	 viewBox="0 0 428 412" style="enable-background:new 0 0 428 412;" xml:space="preserve">
<style type="text/css">
	.st0{fill:#FFFFFF;}
	.st1{fill:none;stroke:#000000;stroke-miterlimit:10;}
	.st2{fill:none;stroke:#000000;stroke-width:3;stroke-miterlimit:10;}
	.st3{fill:none;stroke:#000000;stroke-width:2;stroke-miterlimit:10;}
</style>
<g>
	<path d="M116.46,244.04c-14.91,0-40.19-3.07-41.94-23.66c-0.41-4.8,0.99-8.99,4.15-12.43c6.41-6.97,20.18-10.97,37.79-10.97
		c24.69,0,41.93,9.68,41.93,23.53C158.39,234.37,141.14,244.04,116.46,244.04z"/>
	<path d="M116.46,198.48c23.8,0,40.43,9.06,40.43,22.03s-16.63,22.03-40.43,22.03c-14.4,0-38.79-2.9-40.44-22.29
		c-0.38-4.43,0.85-8.12,3.76-11.29C85.9,202.3,99.27,198.48,116.46,198.48 M116.46,195.48c-23.99,0-44.93,7.42-43.43,25.03
		c1.5,17.62,19.44,25.03,43.43,25.03s43.43-9.27,43.43-25.03C159.89,204.75,140.44,195.48,116.46,195.48L116.46,195.48z"/>
</g>
<g>
	<path class="st0" d="M115.74,235.77c-12.85,0-34.64-2.23-36.16-17.17c-0.31-3.08,0.59-5.83,2.7-8.16
		c5.11-5.66,17.31-8.91,33.46-8.91c21.29,0,36.16,7.04,36.16,17.12S137.03,235.77,115.74,235.77z"/>
	<path d="M115.74,202.04c21,0,35.66,6.83,35.66,16.62c0,9.78-14.66,16.62-35.66,16.62c-12.68,0-34.18-2.17-35.66-16.72
		c-0.3-2.93,0.57-5.55,2.57-7.77C87.67,205.23,99.73,202.04,115.74,202.04 M115.74,201.04c-20.25,0-37.92,5.22-36.66,17.62
		c1.26,12.4,16.41,17.62,36.66,17.62c20.25,0,36.66-6.52,36.66-17.62S135.99,201.04,115.74,201.04L115.74,201.04z"/>
</g>
<line class="st1" x1="73.77" y1="220.51" x2="73.77" y2="311.37"/>
<line class="st1" x1="159.14" y1="220.51" x2="157.64" y2="311.37"/>
<g>
	<path d="M116.46,331.19c-14.91,0-40.19-3.07-41.94-23.66c-0.41-4.8,0.99-8.99,4.15-12.43c6.41-6.98,20.18-10.98,37.79-10.98
		c24.69,0,41.93,9.68,41.93,23.53C158.39,321.52,141.14,331.19,116.46,331.19z"/>
	<path d="M116.46,285.63c23.8,0,40.43,9.06,40.43,22.03s-16.63,22.03-40.43,22.03c-14.4,0-38.79-2.9-40.44-22.29
		c-0.38-4.43,0.85-8.12,3.76-11.29C85.9,289.45,99.27,285.63,116.46,285.63 M116.46,282.63c-23.99,0-44.93,7.42-43.43,25.03
		c1.5,17.62,19.44,25.03,43.43,25.03s43.43-9.27,43.43-25.03S140.44,282.63,116.46,282.63L116.46,282.63z"/>
</g>
<g>
	<path class="st0" d="M115.74,322.92c-12.85,0-34.64-2.23-36.16-17.17c-0.31-3.08,0.59-5.83,2.7-8.16
		c5.11-5.66,17.31-8.91,33.46-8.91c21.29,0,36.16,7.04,36.16,17.12S137.03,322.92,115.74,322.92z"/>
	<path d="M115.74,289.19c21,0,35.66,6.83,35.66,16.62c0,9.78-14.66,16.62-35.66,16.62c-12.68,0-34.18-2.17-35.66-16.72
		c-0.3-2.93,0.57-5.55,2.57-7.77C87.67,292.38,99.73,289.19,115.74,289.19 M115.74,288.19c-20.25,0-37.92,5.22-36.66,17.62
		c1.26,12.4,16.41,17.62,36.66,17.62c20.25,0,36.66-6.52,36.66-17.62S135.99,288.19,115.74,288.19L115.74,288.19z"/>
</g>
<g>
	<path d="M274.43,358.91c-4.31,0-8.53-0.83-12.52-2.47l-88.49-36.33c-8.09-3.32-14.37-9.58-17.67-17.63
		c-3.24-7.9-3.2-16.54,0.12-24.33l1.29-3.04c5.09-11.97,16.97-19.71,30.26-19.71c4.31,0,8.53,0.83,12.52,2.47l88.49,36.33
		c8.09,3.32,14.37,9.58,17.67,17.63c3.24,7.89,3.2,16.54-0.12,24.33l-1.29,3.04C299.6,351.18,287.72,358.91,274.43,358.91z"/>
	<path d="M187.43,253.9v3h0c4.12,0,8.14,0.79,11.95,2.36l88.49,36.33c7.72,3.17,13.7,9.14,16.85,16.81
		c3.09,7.52,3.05,15.75-0.11,23.18l-1.29,3.04c-4.86,11.42-16.2,18.79-28.88,18.79c-4.12,0-8.14-0.79-11.95-2.36l-88.49-36.33
		c-7.72-3.17-13.7-9.14-16.85-16.81c-3.09-7.52-3.05-15.75,0.11-23.18l1.29-3.04c4.86-11.42,16.2-18.79,28.88-18.79L187.43,253.9
		 M187.43,253.9c-13.39,0-26.18,7.77-31.64,20.62l-1.29,3.04c-7.25,17.04,1.01,36.81,18.36,43.94l88.49,36.33
		c4.27,1.75,8.72,2.58,13.09,2.58c13.39,0,26.18-7.77,31.64-20.62l1.29-3.04c7.25-17.04-1.01-36.81-18.36-43.94l-88.49-36.33
		C196.25,254.73,191.81,253.9,187.43,253.9L187.43,253.9z"/>
</g>
<g>
	<path d="M246.52,304.47c-5.56,0-11.01-1.08-16.19-3.21c-10.44-4.29-18.52-12.32-22.75-22.62c-4.14-10.09-4.07-21.18,0.2-31.22
		c6.54-15.36,21.73-25.29,38.71-25.29c5.57,0,11.01,1.08,16.19,3.21c10.44,4.29,18.52,12.32,22.75,22.62
		c4.14,10.09,4.07,21.18-0.2,31.21C278.69,294.55,263.49,304.47,246.52,304.47z"/>
	<path d="M246.49,220.64v3c5.37,0,10.62,1.04,15.62,3.09c10.07,4.13,17.86,11.88,21.93,21.8c3.99,9.72,3.92,20.39-0.19,30.06
		c-6.3,14.81-20.95,24.37-37.33,24.37c-5.37,0-10.62-1.04-15.62-3.09c-10.07-4.13-17.86-11.88-21.93-21.81
		c-3.99-9.72-3.92-20.39,0.19-30.06c6.3-14.81,20.95-24.37,37.33-24.37L246.49,220.64 M246.48,220.64c-17,0-33.13,9.85-40.09,26.2
		c-9.25,21.73,1.21,46.72,23.36,55.81c5.48,2.25,11.17,3.32,16.76,3.32c17,0,33.13-9.85,40.09-26.2
		c9.25-21.73-1.21-46.72-23.36-55.81C257.76,221.71,252.08,220.64,246.48,220.64L246.48,220.64z"/>
</g>
<polyline class="st2" points="167.01,158.4 131.57,199.47 167.01,231.16 "/>
<line class="st2" x1="199.02" y1="138" x2="167.44" y2="256.67"/>
<polyline class="st2" points="206.43,171.38 229.74,206.09 199.53,231.16 "/>
<path class="st3" d="M263.82,391"/>
</svg>
