<?xml version="1.0" encoding="utf-8"?>
<!-- Generator: Adobe Illustrator 23.0.1, SVG Export Plug-In . SVG Version: 6.00 Build 0)  -->
<svg version="1.1" id="Layer_1" xmlns="http://www.w3.org/2000/svg" xmlns:xlink="http://www.w3.org/1999/xlink" x="0px" y="0px"
	 viewBox="0 0 1920 1080" style="enable-background:new 0 0 1920 1080;" xml:space="preserve">
<style type="text/css">
	.st0{fill:#FFFFFF;}
	.st1{fill:#FFFFFF;stroke:#000000;stroke-miterlimit:10;}
	.st2{fill:none;stroke:#000000;stroke-miterlimit:10;}
	.st3{font-family:'ArialMT';}
	.st4{font-size:14.014px;}
	.st5{font-size:13.7511px;}
	.st6{fill:none;}
</style>
<g>
	<path class="st0" d="M767.11,819.5c-71.24,0-138.21-26.69-188.57-75.15C528.19,695.91,500.46,631.5,500.46,563
		s27.73-132.91,78.08-181.35c50.36-48.46,117.33-75.15,188.57-75.15s138.21,26.69,188.57,75.15
		c50.35,48.44,78.08,112.85,78.08,181.35s-27.73,132.91-78.08,181.35C905.31,792.81,838.34,819.5,767.11,819.5z"/>
	<path d="M767.11,307c35.94,0,70.82,6.77,103.65,20.13c31.7,12.9,60.17,31.37,84.62,54.89c24.43,23.51,43.63,50.89,57.02,81.37
		c13.87,31.55,20.9,65.06,20.9,99.6s-7.03,68.06-20.9,99.6c-13.4,30.48-32.59,57.86-57.02,81.37
		c-24.44,23.52-52.92,41.99-84.62,54.89C837.93,812.23,803.05,819,767.11,819s-70.82-6.77-103.65-20.13
		c-31.7-12.9-60.17-31.37-84.62-54.89c-24.43-23.51-43.63-50.89-57.02-81.37c-13.87-31.55-20.9-65.07-20.9-99.61
		s7.03-68.06,20.9-99.6c13.4-30.48,32.59-57.86,57.02-81.37c24.44-23.52,52.92-41.99,84.62-54.89
		C696.28,313.77,731.16,307,767.11,307 M767.11,306C619.59,306,500,421.06,500,563s119.59,257,267.11,257s267.11-115.06,267.11-257
		S914.62,306,767.11,306L767.11,306z"/>
</g>
<g>
	<polygon class="st0" points="623.08,749.47 606.08,382.27 885.17,407.79 896.09,768.91 	"/>
	<path d="M606.57,382.82l278.15,25.43l10.9,360.13L623.52,749L606.57,382.82 M605.59,381.73l17.05,368.21l273.93,19.51
		l-10.96-362.12L605.59,381.73L605.59,381.73z"/>
</g>
<g>
	<rect x="922.42" y="496.04" class="st0" width="9.77" height="193.52"/>
	<path d="M931.73,496.54v192.52h-8.85V496.54H931.73 M932.65,495.54h-10.68v194.52h10.68V495.54L932.65,495.54z"/>
</g>
<g>
	<rect x="916.48" y="478.95" class="st0" width="22.83" height="73.92"/>
	<path d="M938.85,479.45v72.92h-21.91v-72.92H938.85 M939.77,478.45h-23.75v74.92h23.75V478.45L939.77,478.45z"/>
</g>
<g>
	<rect x="921.23" y="678.73" class="st0" width="13.33" height="14.77"/>
	<path d="M934.11,679.23V693H921.7v-13.77H934.11 M935.03,678.23h-14.25V694h14.25V678.23L935.03,678.23z"/>
</g>
<g>
	<path class="st0" d="M636.86,585.6c-4.22,0-7.66-3.75-7.66-8.35v-32.51c0-4.6,3.44-8.35,7.66-8.35h36.1c4.22,0,7.66,3.75,7.66,8.35
		v32.51c0,4.6-3.44,8.35-7.66,8.35H636.86z"/>
	<path d="M672.96,536.88c3.97,0,7.21,3.52,7.21,7.85v32.51c0,4.33-3.23,7.85-7.21,7.85h-36.1c-3.97,0-7.21-3.52-7.21-7.85v-32.51
		c0-4.33,3.23-7.85,7.21-7.85H672.96 M672.96,535.88h-36.1c-4.49,0-8.12,3.96-8.12,8.85v32.51c0,4.89,3.63,8.85,8.12,8.85h36.1
		c4.49,0,8.12-3.96,8.12-8.85v-32.51C681.08,539.84,677.44,535.88,672.96,535.88L672.96,535.88z"/>
</g>
<g>
	<path class="st0" d="M713.56,585.6c-4.22,0-7.66-3.75-7.66-8.35v-32.51c0-4.6,3.44-8.35,7.66-8.35h36.1c4.22,0,7.66,3.75,7.66,8.35
		v32.51c0,4.6-3.44,8.35-7.66,8.35H713.56z"/>
	<path d="M749.66,536.88c3.97,0,7.21,3.52,7.21,7.85v32.51c0,4.33-3.23,7.85-7.21,7.85h-36.1c-3.97,0-7.21-3.52-7.21-7.85v-32.51
		c0-4.33,3.23-7.85,7.21-7.85H749.66 M749.66,535.88h-36.1c-4.49,0-8.12,3.96-8.12,8.85v32.51c0,4.89,3.63,8.85,8.12,8.85h36.1
		c4.49,0,8.12-3.96,8.12-8.85v-32.51C757.78,539.84,754.14,535.88,749.66,535.88L749.66,535.88z"/>
</g>
<g>
	<path class="st0" d="M801.21,585.6c-4.22,0-7.66-3.75-7.66-8.35v-32.51c0-4.6,3.44-8.35,7.66-8.35h36.1c4.22,0,7.66,3.75,7.66,8.35
		v32.51c0,4.6-3.44,8.35-7.66,8.35H801.21z"/>
	<path d="M837.31,536.88c3.97,0,7.21,3.52,7.21,7.85v32.51c0,4.33-3.23,7.85-7.21,7.85h-36.1c-3.97,0-7.21-3.52-7.21-7.85v-32.51
		c0-4.33,3.23-7.85,7.21-7.85H837.31 M837.31,535.88h-36.1c-4.49,0-8.12,3.96-8.12,8.85v32.51c0,4.89,3.63,8.85,8.12,8.85h36.1
		c4.49,0,8.12-3.96,8.12-8.85v-32.51C845.43,539.84,841.8,535.88,837.31,535.88L837.31,535.88z"/>
</g>
<path class="st1" d="M1242.5,357.5"/>
<path class="st1" d="M983.27,517.5"/>
<line class="st2" x1="626.29" y1="508.44" x2="864.3" y2="509.6"/>
<text transform="matrix(1.0424 0 0 1 799.2476 433.04)" class="st3 st4">xxxxxxxxx</text>
<text transform="matrix(1.0424 0 0 1 628.8262 501.9639)" class="st3 st4">xxxxxxxxxxxxxxxxxxxxxxxxxxxxxxxxxx</text>
<text transform="matrix(1.0424 0 0 1 628.8066 464.5713)" class="st3 st4">xxxxxxxxx</text>
<text transform="matrix(1.0424 0 0 1 799.2476 451.7256)" class="st3 st4">xxxxxxxxx</text>
<text transform="matrix(1.0424 0 0 1 634.9043 633.9443)" class="st3 st4">           xxxxxxxxxxxxxxxxxxxxxxxxxxx </text>
<text transform="matrix(1.0171 0 0 1 634.9053 658.126)" class="st3 st5">xxxxxxxxxxxxxxxxxxxxxxxxxxxxxxxxxxxx </text>
<text transform="matrix(1.0424 0 0 1 634.9043 698.1758)" class="st3 st4">           xxxxxxxxxxxxxxxxxxxxxxxxxxxxxx </text>
<text transform="matrix(1.0424 0 0 1 640.9922 727.3711)" class="st3 st4">xxxxxxxxxxxxxxxxxxxxxxxxxxxxxxxxxx  </text>
<polygon class="st6" points="868.23,655.81 876.67,655.81 876.67,655.81 "/>
</svg>
