<?xml version="1.0" encoding="utf-8"?>
<!-- Generator: Adobe Illustrator 23.0.1, SVG Export Plug-In . SVG Version: 6.00 Build 0)  -->
<svg version="1.1" id="Layer_1" xmlns="http://www.w3.org/2000/svg" xmlns:xlink="http://www.w3.org/1999/xlink" x="0px" y="0px"
	 viewBox="0 0 307 327" style="enable-background:new 0 0 307 327;" xml:space="preserve">
<style type="text/css">
	.st0{fill:none;stroke:#000000;stroke-width:3;stroke-miterlimit:10;}
	.st1{fill:none;stroke:#000000;stroke-width:5;stroke-miterlimit:10;}
	.st2{fill:#29ABE2;stroke:#000000;stroke-miterlimit:10;}
	.st3{fill:#FFFFFF;stroke:#000000;stroke-miterlimit:10;}
	.st4{fill:#FFFFFF;stroke:#000000;stroke-width:0.5;stroke-miterlimit:10;}
	.st5{fill:#CCCCCC;stroke:#000000;stroke-width:0.75;stroke-miterlimit:10;}
	.st6{fill:#1B1464;}
	.st7{font-family:'MyriadPro-Regular';}
	.st8{font-size:14px;}
	.st9{fill:none;stroke:#000000;stroke-width:0.5;stroke-miterlimit:10;}
	.st10{font-size:13px;}
	.st11{fill:none;stroke:#000000;stroke-miterlimit:10;}
	.st12{font-size:11px;}
</style>
<path class="st0" d="M238.5,309.5c-19.23-10.56-204.6-0.84-204,0c-6.6,0-12-5.4-12-12c0,0,10-244,0-264c-16-20,6-17,12-12
	c0.22,0.11,1.05,0.21,2.41,0.3c0.69,0.04,1.52,0.09,2.47,0.12C70.54,23.18,238.5,21.5,238.5,21.5c6.6,0,12,5.4,12,12
	c0,0-7,253,0,264S253.48,317.72,238.5,309.5z"/>
<path class="st1" d="M235.6,308.91"/>
<path class="st1" d="M35.5,11.5"/>
<rect x="270.22" y="78.5" class="st2" width="16.05" height="181"/>
<rect x="266" y="69.5" class="st3" width="24.5" height="87"/>
<path class="st4" d="M288.28,264h-19.21c-0.76,0-1.38-0.62-1.38-1.38v-7.25c0-0.76,0.62-1.38,1.38-1.38h19.21
	c0.76,0,1.38,0.62,1.38,1.38v7.25C289.66,263.38,289.04,264,288.28,264z"/>
<path class="st5" d="M289.75,79.5h-23c-0.41,0-0.75-0.34-0.75-0.75v-8.5c0-0.41,0.34-0.75,0.75-0.75h23c0.41,0,0.75,0.34,0.75,0.75
	v8.5C290.5,79.16,290.16,79.5,289.75,79.5z"/>
<text transform="matrix(1 0 0 1 144.3896 49.1162)" class="st6 st7 st8">xxxxxxxxxxxxx</text>
<text transform="matrix(1 0 0 1 144.3896 69.1162)" class="st6 st7 st8">xxxxxxxxxxxxx</text>
<text transform="matrix(1 0 0 1 144.3896 86.1162)" class="st6 st7 st8">xxxxxxxxxxxxx</text>
<rect x="45.5" y="122.5" class="st9" width="43" height="43"/>
<rect x="118.5" y="122.5" class="st9" width="43" height="43"/>
<rect x="184.5" y="122.5" class="st9" width="43" height="43"/>
<text transform="matrix(1 0 0 1 43.0947 108.4102)" class="st6 st7 st10">xxxxxxxxxxxxxxxxxxxxxxxxx</text>
<line class="st11" x1="39.5" y1="112.5" x2="230.5" y2="112.5"/>
<line class="st11" x1="42.5" y1="97.5" x2="43.5" y2="97.5"/>
<text transform="matrix(1 0 0 1 49.5684 182.2949)" class="st6 st7 st10">xxxxxxxxxxxxxxxxxxxxxxxxxxx</text>
<text transform="matrix(1 0 0 1 49.5684 196.2949)" class="st6 st7 st10">xxxxxxxxxxxxxxxxxxxxxxxxxxx</text>
<text transform="matrix(1 0 0 1 47.5684 249.2949)" class="st6 st7 st10">xxxxxxxxxxxxxxxxxxxxxxxxxxx</text>
<text transform="matrix(1 0 0 1 49.5684 230.2949)" class="st6 st7 st10">xxxxxxxxxxxxxxxxxxxxxxxxxxx</text>
<text transform="matrix(1 0 0 1 49.5684 213.2949)" class="st6 st7 st10">xxxxxxxxxxxxxxxxxxxxxxxxxxx</text>
<line class="st11" x1="151" y1="280" x2="232" y2="280"/>
<text transform="matrix(1 0 0 1 167.3896 290.2842)" class="st7 st12">xxxxxxxxx</text>
</svg>
