<?xml version="1.0" encoding="utf-8"?>
<!-- Generator: Adobe Illustrator 23.0.1, SVG Export Plug-In . SVG Version: 6.00 Build 0)  -->
<svg version="1.1" id="Layer_1" xmlns="http://www.w3.org/2000/svg" xmlns:xlink="http://www.w3.org/1999/xlink" x="0px" y="0px"
	 viewBox="0 0 857.9 861.7" style="enable-background:new 0 0 857.9 861.7;" xml:space="preserve">
<style type="text/css">
	.st0{fill:none;}
	.st1{fill:#C6DD7F;}
	.st2{fill:#E9DDB7;}
	.st3{fill:#A6D0E4;}
	.st4{fill:#FFFFFF;}
	.st5{fill:url(#SVGID_2_);}
	.st6{fill:#748CFF;stroke:#000000;stroke-miterlimit:10;}
	.st7{fill:#557BFF;stroke:#000000;stroke-miterlimit:10;}
	.st8{fill:#F2F2F2;}
	.st9{fill:none;stroke:#000000;stroke-width:5;stroke-miterlimit:10;}
	.st10{fill:#B3B3B3;stroke:#000000;stroke-width:2;stroke-miterlimit:10;}
	.st11{fill:#666666;stroke:#000000;stroke-miterlimit:10;}
	.st12{fill:#333333;}
	.st13{fill:#FFFF00;stroke:#F7931E;stroke-width:2;stroke-miterlimit:10;}
	.st14{fill:#FFFFFF;stroke:#000000;stroke-width:2;stroke-miterlimit:10;}
	.st15{fill:#FFFFFF;stroke:#000000;stroke-width:3;stroke-miterlimit:10;}
	.st16{opacity:0.3;fill:#D9FFAA;stroke:#000000;stroke-width:0.5;stroke-miterlimit:10;}
</style>
<pattern  x="274" y="687.9" width="144.1" height="138.4" patternUnits="userSpaceOnUse" id="SVGID_1_" viewBox="100 -203.1 144.1 138.4" style="overflow:visible;">
	<g>
		<rect x="100" y="-203.1" class="st0" width="144.1" height="138.4"/>
		<g>
			<rect x="100" y="-203.1" class="st0" width="144.1" height="138.4"/>
			<g>
				<path class="st1" d="M311.1-223.3c-11.8,1.4-19.4-0.3-22.6-3.1c-3-2.5-5-5.4-2.3-11.9c2.9-7.1,1.5-14.7-5.5-15.9
					c-6.2-1-10.9,4.8-11.2,12.3c-0.2,5.2-1.9,8.3-5.5,7.6s-4.6-5.9-3.6-11.8c1.4-8.1,5.5-11.8,6.2-20.2c0.5-6.1-2.9-13.7-12.5-15
					c-9.3-1.4-15.9,4.3-16.6,10.5c-0.7,6.6,3.6,10.9,3.1,17.6s-4,10.2-5.9,17.3c-2.8,10.6,1.2,19,7.8,22.7c14.8,8.1,22.8-3.6,36-1.6
					c10.9,1.7,23.4,18.2,33,19.5c8.2,1.2,13.8-4.7,15-14C327.7-218.6,321.7-224.5,311.1-223.3z M268.9-223.8c0,2.3-1.9,4.1-4.1,4.1
					s-4.1-1.9-4.1-4.1c0-2.3,1.9-4.2,4.1-4.2S268.9-226.1,268.9-223.8z M318.3-208.4c0,1-0.8,1.7-1.7,1.7s-1.7-0.8-1.7-1.7
					c0-1,0.8-1.7,1.7-1.7S318.3-209.3,318.3-208.4z"/>
			</g>
			<g>
				<path class="st2" d="M148.8-204.1c0-7.2,4.6-13.8-1-16.3c-8.5-3.8-28,14.3-28,36.2c0,12,8.7,19,17.8,19c12.3,0,18-8.2,18-17.5
					C155.6-192.1,148.8-195.9,148.8-204.1z M143.4-198.7c0,1.2-0.9,2.1-2.1,2.1c-1.1,0-2.1-0.9-2.1-2.1s0.9-2.1,2.1-2.1
					C142.5-200.8,143.4-199.8,143.4-198.7z"/>
				<path class="st3" d="M223.5-227.6c-7.9-2.7-19.4,15.3-17.7,27c1.2,8.2,7.1,13.2,13.1,14.2c7.5,1.3,12.9-2.6,13.3-7.2
					c0.6-6.3-3.6-7.5-4.2-15C227.4-215.7,231.7-224.7,223.5-227.6z M219.7-200c0,1.4-1.2,2.6-2.6,2.6s-2.6-1.2-2.6-2.6
					c0-1.4,1.2-2.6,2.6-2.6C218.5-202.6,219.7-201.5,219.7-200z"/>
				<path class="st2" d="M119.4-205.1c0-1.4-1.2-2.6-2.6-2.6c-1.4,0-2.6,1.2-2.6,2.6s1.2,2.6,2.6,2.6
					C118.2-202.5,119.4-203.7,119.4-205.1z"/>
				<path class="st3" d="M184.6-197.4c0.7-8.1,12.7-7,17.9-14.2c10.5-14.5-1.2-46.4-21.6-46.4c-11.7,0-24.2,9.7-24.2,29.2
					c0,15.8,10.2,21.5,8.3,42.2c-1,10.8-12.5,20.3-12.5,34.8c0,5.9,3.6,13.4,11.6,13.4c7.1,0,10.8-5.9,10.8-12.9
					c0-6.8-5.4-15.7,1.4-19.1c5.2-2.6,13.2,4.8,19.5,6.8c5.2,1.6,12.4-0.2,14.8-8.5c2.5-8.9-3.3-14.8-11.6-16.7
					C192.5-190.2,184-190.9,184.6-197.4z M168.6-166.8c0,1.8-1.5,3.3-3.3,3.3c-1.8,0-3.3-1.5-3.3-3.3c0-1.8,1.5-3.3,3.3-3.3
					S168.6-168.6,168.6-166.8z M194.6-176.5c1.3,0,2.3,1,2.3,2.3s-1,2.3-2.3,2.3c-1.3,0-2.3-1-2.3-2.3
					C192.3-175.5,193.3-176.5,194.6-176.5z M174.6-236.2c0,1.8-1.5,3.3-3.3,3.3c-1.8,0-3.3-1.5-3.3-3.3c0-1.8,1.5-3.3,3.3-3.3
					C173.1-239.5,174.6-238,174.6-236.2z"/>
				<path class="st1" d="M166.9-223.3c-11.8,1.4-19.4-0.3-22.6-3.1c-3-2.5-5-5.4-2.3-11.9c2.9-7.1,1.5-14.7-5.5-15.9
					c-6.2-1-10.9,4.8-11.2,12.3c-0.2,5.2-1.9,8.3-5.5,7.6s-4.6-5.9-3.6-11.8c1.4-8.1,5.5-11.8,6.2-20.2c0.5-6.1-2.9-13.7-12.4-15
					c-9.3-1.4-15.9,4.3-16.6,10.5c-0.7,6.6,3.6,10.9,3.1,17.6s-4,10.2-5.9,17.3c-2.8,10.6,1.2,19,7.8,22.7c14.8,8.1,22.8-3.6,36-1.6
					c10.9,1.7,23.4,18.2,33,19.5c8.2,1.2,13.8-4.7,15-14C183.5-218.6,177.6-224.5,166.9-223.3z M124.7-223.8c0,2.3-1.9,4.1-4.2,4.1
					s-4.2-1.9-4.2-4.1c0-2.3,1.9-4.2,4.2-4.2S124.7-226.1,124.7-223.8z M174.2-208.4c0,1-0.8,1.7-1.7,1.7c-1,0-1.7-0.8-1.7-1.7
					c0-1,0.8-1.7,1.7-1.7S174.2-209.3,174.2-208.4z"/>
			</g>
			<g>
				<path class="st3" d="M290.3-176.7c0-6.2-4.1-10.7-8.6-11.6s-8.3,1.3-13-1.2c-4.8-2.6-7.1-11.1-16.8-11.1c-8,0-15.2,8-15.2,18.9
					c0,20.2,13.1,29.2,25.6,29.2C278.9-152.5,290.3-165.1,290.3-176.7z M270.6-162.4c0,2.1-1.7,3.8-3.8,3.8c-2.1,0-3.8-1.7-3.8-3.8
					s1.7-3.8,3.8-3.8S270.6-164.5,270.6-162.4z"/>
				<path class="st1" d="M311.1-84.9c-11.8,1.4-19.4-0.4-22.6-3.1c-3-2.5-5-5.4-2.3-11.9c2.9-7.1,1.5-14.7-5.5-15.9
					c-6.2-1-10.9,4.8-11.2,12.3c-0.2,5.2-1.9,8.3-5.5,7.6s-4.6-5.9-3.6-11.8c1.4-8.1,5.5-11.8,6.2-20.2c0.5-6.1-2.9-13.7-12.5-15
					c-9.3-1.4-15.9,4.3-16.6,10.6c-0.7,6.6,3.6,10.9,3.1,17.6s-4,10.2-5.9,17.3c-2.8,10.6,1.2,19,7.8,22.6c14.8,8.1,22.8-3.6,36-1.6
					c10.9,1.7,23.4,18.2,33,19.5c8.2,1.2,13.8-4.7,15-14C327.7-80.2,321.7-86.1,311.1-84.9z M268.9-85.4c0,2.3-1.9,4.1-4.1,4.1
					s-4.1-1.9-4.1-4.1s1.9-4.1,4.1-4.1S268.9-87.7,268.9-85.4z M318.3-70c0,1-0.8,1.7-1.7,1.7s-1.7-0.8-1.7-1.7c0-1,0.8-1.7,1.7-1.7
					S318.3-71,318.3-70z"/>
			</g>
			<g>
				<path class="st3" d="M131.8-148.4c-14-2-21.2,13.3-17.7,20.3c3.7,7.3,12.1,4.2,19.5,4.2c9.7,0,16.4,7.6,20.4,2.3
					C158.3-127.2,149-145.9,131.8-148.4z M132.3-130.9c0,1.2-1,2.3-2.3,2.3s-2.3-1-2.3-2.3s1-2.3,2.3-2.3
					C131.3-133.1,132.3-132.1,132.3-130.9z"/>
				<path class="st2" d="M148.8-65.7c0-7.2,4.6-13.8-1-16.3c-8.5-3.8-28,14.3-28,36.2c0,12,8.7,19,17.8,19c12.3,0,18-8.2,18-17.5
					C155.6-53.7,148.8-57.5,148.8-65.7z M143.4-60.3c0,1.1-0.9,2.1-2.1,2.1c-1.1,0-2.1-0.9-2.1-2.1c0-1.1,0.9-2.1,2.1-2.1
					C142.5-62.4,143.4-61.5,143.4-60.3z"/>
				<path class="st3" d="M146.2-176.7c0-6.2-4.1-10.7-8.6-11.6s-8.3,1.3-13-1.2c-4.8-2.6-7.1-11.1-16.8-11.1c-8,0-15.2,8-15.2,18.9
					c0,20.2,13.1,29.2,25.6,29.2C134.8-152.5,146.2-165.1,146.2-176.7z M126.4-162.4c0,2.1-1.7,3.8-3.8,3.8c-2.1,0-3.8-1.7-3.8-3.8
					s1.7-3.8,3.8-3.8C124.7-166.2,126.4-164.5,126.4-162.4z"/>
				<path class="st1" d="M145.5-153c0-1.3-1.1-2.4-2.4-2.4s-2.4,1.1-2.4,2.4s1.1,2.4,2.4,2.4S145.5-151.7,145.5-153z"/>
				<path class="st3" d="M229.2-134.5c-3.2-4.7,1-10.7-1.4-15.2s-6.7-5-9.9-2.6c-3.6,2.8-3.4,6.6-8.3,8.8c-5.5,2.5-18-2.3-19.7,7.3
					c-0.9,4.8,2.4,8.6,7.3,9.7c6.1,1.4,9.4,0.2,15.4,3.1c6.1,2.9,11.2,9,22.1,12.1c10.4,3,16.1-1.6,16.6-5.9
					C252.3-125.7,234.2-127.2,229.2-134.5z M226.9-127.1c0,1.2-1,2.3-2.3,2.3s-2.3-1-2.3-2.3s1-2.3,2.3-2.3
					C225.9-129.3,226.9-128.3,226.9-127.1z"/>
				<path class="st2" d="M256.1-173.7c0-17.2-14.5-25.5-27-22.8c-10.3,2.2-12.8,17.3-16.7,26.2c-3.7,8.6-8.8,22.5-20.2,22.5
					c-11.2,0-12.8-14.5-23.7-14.5c-11,0-24.5,15.7-24.5,39.7c0,14.7,9.8,31.5,20.8,30.7c11.7-0.8,4.5-19.7,15.3-19.7
					c9.5,0,7.9,16.3,9.2,23.3c1.7,9,6.8,14.2,18.5,13.2c14.4-1.2,22.3-13.5,18.9-23.3c-4-11.4-23.9-17.3-21.5-30.5
					c1.4-7.6,13-12,26-16.2C245.8-149.9,256.1-156.5,256.1-173.7z M211.2-97.9c0-1.8,1.5-3.3,3.3-3.3c1.8,0,3.3,1.5,3.3,3.3
					s-1.5,3.3-3.3,3.3C212.7-94.6,211.2-96,211.2-97.9z M164.5-122.8c0,1-0.8,1.7-1.7,1.7c-1,0-1.7-0.8-1.7-1.7c0-1,0.8-1.7,1.7-1.7
					C163.7-124.5,164.5-123.7,164.5-122.8z M182-133.5c0,2.1-1.7,3.8-3.8,3.8s-3.8-1.7-3.8-3.8s1.7-3.8,3.8-3.8
					C180.3-137.3,182-135.6,182-133.5z M201.8-117.9c0,0.9-0.7,1.6-1.6,1.6s-1.6-0.7-1.6-1.6s0.7-1.6,1.6-1.6
					S201.8-118.8,201.8-117.9z M231.5-172.6c0,1.8-1.4,3.2-3.2,3.2s-3.2-1.4-3.2-3.2s1.4-3.2,3.2-3.2
					C230.1-175.8,231.5-174.4,231.5-172.6z"/>
				<path class="st3" d="M223.5-89.2c-7.9-2.7-19.4,15.3-17.7,27c1.2,8.2,7.1,13.2,13.1,14.2c7.5,1.3,12.9-2.6,13.3-7.2
					c0.6-6.3-3.6-7.5-4.2-15C227.4-77.3,231.7-86.3,223.5-89.2z M219.7-61.7c0,1.4-1.2,2.6-2.6,2.6s-2.6-1.2-2.6-2.6
					s1.2-2.6,2.6-2.6C218.5-64.3,219.7-63.1,219.7-61.7z"/>
				<path class="st2" d="M119.4-66.7c0-1.4-1.2-2.6-2.6-2.6c-1.4,0-2.6,1.2-2.6,2.6s1.2,2.6,2.6,2.6
					C118.2-64.1,119.4-65.3,119.4-66.7z"/>
				<path class="st2" d="M253.4-153.5c0,8.4-5.1,15.2-11.3,15.2s-11.3-6.8-11.3-15.2c0-8.4,5.1-12.4,11.3-12.4
					S253.4-161.9,253.4-153.5z"/>
				<path class="st3" d="M184.6-59c0.7-8.1,12.7-7,17.9-14.2c10.5-14.5-1.2-46.4-21.6-46.4c-11.7,0-24.2,9.7-24.2,29.2
					c0,15.8,10.2,21.5,8.3,42.2c-1,10.8-12.5,20.3-12.5,34.7C152.4-7.5,156,0,163.9,0c7.1,0,10.8-6,10.8-12.9
					c0-6.8-5.4-15.7,1.4-19.1c5.2-2.6,13.2,4.8,19.5,6.7c5.2,1.6,12.4-0.2,14.8-8.5c2.5-8.9-3.3-14.8-11.6-16.7
					C192.5-51.9,184-52.6,184.6-59z M168.6-28.4c0,1.8-1.5,3.3-3.3,3.3c-1.8,0-3.3-1.5-3.3-3.3c0-1.8,1.5-3.3,3.3-3.3
					S168.6-30.3,168.6-28.4z M194.6-38.1c1.3,0,2.3,1,2.3,2.3c0,1.3-1,2.3-2.3,2.3c-1.3,0-2.3-1-2.3-2.3
					C192.3-37.1,193.3-38.1,194.6-38.1z M174.6-97.8c0,1.8-1.5,3.3-3.3,3.3c-1.8,0-3.3-1.5-3.3-3.3c0-1.8,1.5-3.3,3.3-3.3
					C173.1-101.1,174.6-99.6,174.6-97.8z"/>
				<path class="st1" d="M166.9-84.9c-11.8,1.4-19.4-0.4-22.6-3.1c-3-2.5-5-5.4-2.3-11.9c2.9-7.1,1.5-14.7-5.5-15.9
					c-6.2-1-10.9,4.8-11.2,12.3c-0.2,5.2-1.9,8.3-5.5,7.6s-4.6-5.9-3.6-11.8c1.4-8.1,5.5-11.8,6.2-20.2c0.5-6.1-2.9-13.7-12.4-15
					c-9.3-1.4-15.9,4.3-16.6,10.6c-0.7,6.6,3.6,10.9,3.1,17.6s-4,10.2-5.9,17.3c-2.8,10.6,1.2,19,7.8,22.6c14.8,8.1,22.8-3.6,36-1.6
					c10.9,1.7,23.4,18.2,33,19.5c8.2,1.2,13.8-4.7,15-14C183.5-80.2,177.6-86.1,166.9-84.9z M124.7-85.4c0,2.3-1.9,4.1-4.2,4.1
					s-4.2-1.9-4.2-4.1s1.9-4.1,4.2-4.1S124.7-87.7,124.7-85.4z M174.2-70c0,1-0.8,1.7-1.7,1.7c-1,0-1.7-0.8-1.7-1.7
					c0-1,0.8-1.7,1.7-1.7S174.2-71,174.2-70z"/>
				<path class="st1" d="M230.2-107.2c0-0.8-0.6-1.4-1.4-1.4c-0.8,0-1.4,0.6-1.4,1.4c0,0.8,0.6,1.4,1.4,1.4S230.2-106.4,230.2-107.2
					z"/>
				<path class="st2" d="M235.7-68.8c0-1.2-1-2.3-2.3-2.3s-2.3,1-2.3,2.3s1,2.3,2.3,2.3S235.7-67.6,235.7-68.8z"/>
				<path class="st3" d="M152.2-92c0-0.7-0.5-1.2-1.2-1.2s-1.2,0.5-1.2,1.2s0.5,1.2,1.2,1.2S152.2-91.3,152.2-92z"/>
				<path class="st3" d="M148.6-160.5c0-0.8-0.6-1.4-1.4-1.4s-1.4,0.6-1.4,1.4c0,0.8,0.6,1.4,1.4,1.4S148.6-159.7,148.6-160.5z"/>
				<path class="st2" d="M233.1-138.5c0-0.7-0.5-1.2-1.2-1.2c-0.7,0-1.2,0.5-1.2,1.2c0,0.7,0.5,1.2,1.2,1.2S233.1-137.8,233.1-138.5
					z"/>
				<path class="st1" d="M195.9-156.4c0-1.9-1.5-3.4-3.4-3.4s-3.4,1.5-3.4,3.4c0,1.9,1.5,3.4,3.4,3.4S195.9-154.5,195.9-156.4z"/>
				<path class="st2" d="M200.8-196.3c0-1.2-0.9-2.1-2.1-2.1s-2.1,0.9-2.1,2.1s0.9,2.1,2.1,2.1S200.8-195.1,200.8-196.3z"/>
				<path class="st2" d="M162-190c0-0.9-0.7-1.6-1.6-1.6c-0.9,0-1.6,0.7-1.6,1.6s0.7,1.6,1.6,1.6C161.3-188.4,162-189.1,162-190z"/>
				<circle class="st1" cx="233.1" cy="-75.9" r="2.6"/>
				<circle class="st3" cx="223.1" cy="-110.8" r="2.4"/>
				<path class="st2" d="M127.7-117.4c0-1.4-1.2-2.6-2.6-2.6c-1.4,0-2.6,1.2-2.6,2.6s1.2,2.6,2.6,2.6
					C126.5-114.7,127.7-115.9,127.7-117.4z"/>
				<path class="st3" d="M122.7-110.3c0-0.7-0.6-1.3-1.3-1.3s-1.3,0.6-1.3,1.3s0.6,1.3,1.3,1.3C122.1-109,122.7-109.6,122.7-110.3z"
					/>
				<path class="st2" d="M186.9-162.2c0-0.9-0.7-1.6-1.6-1.6c-0.9,0-1.6,0.7-1.6,1.6c0,0.9,0.7,1.6,1.6,1.6
					C186.2-160.6,186.9-161.3,186.9-162.2z"/>
			</g>
			<g>
				<path class="st3" d="M85-134.5c-3.2-4.7,1-10.7-1.4-15.2s-6.7-5-9.9-2.6c-3.6,2.8-3.4,6.6-8.3,8.8c-5.5,2.5-18-2.3-19.7,7.3
					c-0.9,4.8,2.4,8.6,7.3,9.7c6.1,1.4,9.3,0.2,15.4,3.1c6.1,2.9,11.2,9,22.1,12.1c10.4,3,16.1-1.6,16.6-5.9
					C108.2-125.7,90-127.2,85-134.5z M82.8-127.1c0,1.2-1,2.3-2.3,2.3s-2.3-1-2.3-2.3s1-2.3,2.3-2.3
					C81.8-129.3,82.8-128.3,82.8-127.1z"/>
				<path class="st2" d="M112-173.7c0-17.2-14.5-25.5-27-22.8c-10.3,2.2-12.8,17.3-16.7,26.2c-3.7,8.6-8.8,22.5-20.2,22.5
					c-11.2,0-12.8-14.5-23.7-14.5c-11,0-24.5,15.7-24.5,39.7C0-108,9.8-91.2,20.8-92c11.7-0.8,4.5-19.7,15.3-19.7
					c9.5,0,7.9,16.3,9.2,23.3c1.7,9,6.8,14.2,18.5,13.2c14.4-1.2,22.3-13.5,18.9-23.3c-4-11.4-23.9-17.3-21.5-30.5
					c1.3-7.6,13-12,26-16.2C101.7-149.9,112-156.5,112-173.7z M67.1-97.9c0-1.8,1.5-3.3,3.3-3.3c1.8,0,3.3,1.5,3.3,3.3
					s-1.5,3.3-3.3,3.3C68.5-94.6,67.1-96,67.1-97.9z M20.4-122.8c0,1-0.8,1.7-1.7,1.7s-1.7-0.8-1.7-1.7c0-1,0.8-1.7,1.7-1.7
					S20.4-123.7,20.4-122.8z M37.8-133.5c0,2.1-1.7,3.8-3.8,3.8c-2.1,0-3.8-1.7-3.8-3.8s1.7-3.8,3.8-3.8
					C36.1-137.3,37.8-135.6,37.8-133.5z M57.7-117.9c0,0.9-0.7,1.6-1.6,1.6s-1.6-0.7-1.6-1.6s0.7-1.6,1.6-1.6S57.7-118.8,57.7-117.9
					z M87.4-172.6c0,1.8-1.4,3.2-3.2,3.2s-3.2-1.4-3.2-3.2s1.4-3.2,3.2-3.2C85.9-175.8,87.4-174.4,87.4-172.6z"/>
				<path class="st2" d="M109.2-153.5c0,8.4-5.1,15.2-11.3,15.2s-11.3-6.8-11.3-15.2c0-8.4,5.1-12.4,11.3-12.4
					S109.2-161.9,109.2-153.5z"/>
			</g>
		</g>
	</g>
</pattern>
<g>
	<path class="st4" d="M474.4,495c-11.2,1.7-45.1,0.1-80.5-3.8c-45.5-5-64.5-10.5-66.2-13c-2.2-4.4-3.7-55-2.4-120.5
		c0.4-22,1.4-53.8,3.4-80.2c2.1-27.6,4.4-35.9,5.6-38.4c9.2,10.6,46.4,16.7,62.2,18.9c30.4,4.2,62.5,5.3,79.7,2.8
		c6-0.9,10.3-2.2,12.8-4c2.1,9.5,2.4,50.9-1,118.2c-3.5,68.9-8.2,114.5-10.9,119.4C477,494.4,476.2,494.7,474.4,495z"/>
	<path d="M335.4,243.4c4.3,3.3,11.2,6.2,20.8,9c10.7,3.1,24.5,5.9,40,8c30.7,4.2,63,5.3,80.4,2.8c4.4-0.7,7.9-1.5,10.6-2.6
		c0.6,4.9,1.2,15.1,1.1,36c-0.2,21.1-1.1,49-2.6,78.6c-3.3,64.3-7.7,108.9-10.3,117.3c-0.3,0.1-0.7,0.1-1.3,0.2
		c-10.8,1.6-43.5,0.1-77.9-3.6c-42.6-4.6-62.7-9.7-66.4-12.2c-2-7.5-3.3-56.7-2.1-118.2c0.6-30.7,1.7-58,3.2-78.8
		C332.5,258.1,334.2,248,335.4,243.4 M334,235.9c-12.5,1.9-14.2,233.1-8.4,243.5c5.6,10,124.6,21.7,149.1,18
		c2.1-0.3,3.5-0.7,4.1-1.3c7.5-6.7,20.3-244.5,10.7-243c-0.2,0-0.5,0.2-0.7,0.5c-1.7,2.2-6.4,3.7-13,4.7
		c-35.5,5.3-128.5-5.5-140.2-21.4C335.1,236.1,334.5,235.8,334,235.9L334,235.9z"/>
</g>
<g>
	<pattern  id="SVGID_2_" xlink:href="#SVGID_1_" patternTransform="matrix(1 0 0 -1 -553.61 -15812.1094)">
	</pattern>
	<path class="st5" d="M411,340.4c-2.5,0.4-5.1,0.5-7.6,0.3c-9.2-0.7-17.5-4.9-23.5-12c-6-7-8.9-16-8.2-25.2
		c1.2-16,13.5-29.3,29.3-31.7c2.5-0.4,5.1-0.5,7.6-0.3c9.2,0.7,17.5,4.9,23.5,12c6,7,8.9,16,8.2,25.2
		C439.1,324.7,426.7,338.1,411,340.4z"/>
	<path d="M400.7,270.4l0.4,2.9l0,0c2.4-0.4,4.9-0.4,7.3-0.3c8.8,0.7,16.8,4.7,22.5,11.5c5.7,6.7,8.5,15.3,7.9,24.1
		c-0.6,7.6-3.7,14.7-8.9,20.3c-5.1,5.4-11.9,9-19.2,10.1c-2.4,0.4-4.9,0.4-7.3,0.3c-8.8-0.7-16.8-4.7-22.5-11.5
		c-5.7-6.7-8.5-15.3-7.9-24.1c0.6-7.6,3.7-14.7,8.9-20.3c5.1-5.4,11.9-9,19.2-10.1L400.7,270.4 M400.7,270.4
		c-16.2,2.4-29.2,15.9-30.5,33c-1.5,19.9,13.3,37.2,33.1,38.7c2.7,0.2,5.4,0.1,8-0.3c16.2-2.4,29.2-15.9,30.5-33
		c1.5-19.9-13.3-37.2-33.1-38.7C405.9,269.9,403.3,270,400.7,270.4L400.7,270.4z"/>
</g>
<polyline class="st6" points="492.1,329.5 527.9,381.2 522.9,467.3 486.9,428.8 "/>
<polyline class="st7" points="325.4,322.3 287.7,362.5 284,452.2 323.2,423 "/>
<g>
	<path class="st8" d="M411.1,330.3c-2.2,0.3-4.4,0.4-6.7,0.2c-7.9-0.6-15.2-4.3-20.4-10.3c-5.2-6.1-7.7-13.8-7.1-21.8
		c1.1-14,11.5-25.2,25.3-27.3c2.2-0.3,4.4-0.4,6.7-0.2c7.9,0.6,15.2,4.3,20.4,10.3c5.2,6.1,7.7,13.8,7.1,21.8
		C435.4,317,425,328.3,411.1,330.3z"/>
	<path d="M402.5,272.6L402.5,272.6c2.1-0.3,4.2-0.4,6.3-0.2c7.6,0.6,14.4,4.1,19.4,9.8c4.9,5.8,7.3,13.1,6.8,20.7
		c-0.5,6.6-3.1,12.6-7.6,17.3c-4.4,4.6-10.2,7.7-16.5,8.6c-2.1,0.3-4.2,0.4-6.3,0.2c-7.6-0.6-14.4-4.1-19.4-9.8
		c-4.9-5.8-7.3-13.1-6.8-20.7c0.5-6.6,3.1-12.6,7.6-17.3C390.4,276.6,396.3,273.5,402.5,272.6 M402.1,269.7
		c-14.1,2.1-25.4,13.8-26.6,28.6c-1.3,17.3,11.6,32.3,28.8,33.6c2.4,0.2,4.7,0.1,7-0.2c14.1-2.1,25.4-13.8,26.6-28.6
		c1.3-17.3-11.6-32.3-28.8-33.6C406.7,269.3,404.4,269.4,402.1,269.7L402.1,269.7z"/>
</g>
<polyline class="st9" points="334.3,236.6 410.2,156.3 489.8,253.6 "/>
<path class="st10" d="M464.6,515.4l-127.4-13.3c-2.8-0.3-5-2.7-5-5.4c0-0.1,0-0.2,0-0.3c0.3-1.4,2.9-11.7,5.6-11.4l127.4,13.3
	c2.7,0.3,4.5,11,4.7,12.5c0,0.1,0,0.2,0,0.3C469.8,513.8,467.4,515.7,464.6,515.4z"/>
<path class="st11" d="M458.6,540.9L345.2,529c-2.5-0.3-4.5-3.8-4.3-8c0-0.1,0-0.1,0-0.2c0.2-1.4,2.8-18.1,5.3-17.8l113.4,11.8
	c2.4,0.3,3.8,17.4,4,18.8c0,0.1,0,0.1,0,0.2C463.3,538,461.2,541.1,458.6,540.9z"/>
<path class="st12" d="M449.1,565.5l-97.4-10.2c-2.1-0.2-3.8-3.6-3.7-7.6c0-0.2,0-0.3,0-0.5c0.3-2.1,2.5-17.4,4.6-17.2l97.4,10.2
	c2,0.2,3.2,15.9,3.3,18.1c0,0.2,0,0.3,0,0.5C453.1,562.7,451.2,565.7,449.1,565.5z"/>
<path class="st13" d="M377.4,558.6c0,0-15.9,16.7-16.3,27c-0.4,10.4,25.9,60.8,25.9,60.8s36.1-44.6,36.4-54.3
	c0.3-9.7-17.4-30.6-17.4-30.6"/>
<path class="st14" d="M358.4,211.3c0.1-0.3,0.1-0.3,0.1-0.3c34.7-20,69.2-19.2,103.7,8.4"/>
<path class="st14" d="M335.8,236.7C336,236.4,335.8,236.7,335.8,236.7c50.2-18.8,103.9-12.9,154,15.9"/>
<path class="st14" d="M383,188.8c0.1-0.3,0.1-0.3,0.1-0.3c32.4-15.2,25.8-9.7,54.4,2.4"/>
<path class="st15" d="M773.4,321.2"/>
<ellipse class="st16" cx="406" cy="396.1" rx="319.6" ry="321"/>
</svg>
