<?xml version="1.0" encoding="utf-8"?>
<!-- Generator: Adobe Illustrator 23.0.1, SVG Export Plug-In . SVG Version: 6.00 Build 0)  -->
<svg version="1.1" id="Layer_1" xmlns="http://www.w3.org/2000/svg" xmlns:xlink="http://www.w3.org/1999/xlink" x="0px" y="0px"
	 viewBox="0 0 418 250" style="enable-background:new 0 0 418 250;" xml:space="preserve">
<style type="text/css">
	.st0{fill:#3FA9F5;}
	.st1{fill:#FFFFFF;}
	.st2{font-family:'MyriadPro-Regular';}
	.st3{font-size:63px;}
	.st4{fill:none;stroke:#000000;stroke-width:0.75;stroke-miterlimit:10;}
	.st5{font-size:40px;}
</style>
<path class="st0" d="M24,0l23.62,58.86l119.17,129.07l20.4,12.39c0,0,62.27,23.75,69.78,28.91c7.51,5.16,51.53,13.42,51.53,13.42
	s76.22,16.52,109.5,0"/>
<rect x="187.18" y="0" class="st0" width="230.82" height="194.13"/>
<rect x="31.51" y="0" class="st0" width="156.74" height="12.39"/>
<rect x="95.93" y="48.53" class="st0" width="128.83" height="57.82"/>
<rect x="58.35" y="12.39" class="st0" width="128.83" height="57.82"/>
<rect x="26.15" y="0" class="st0" width="19.32" height="4.13"/>
<rect x="39.03" y="10.33" class="st0" width="28.99" height="11.36"/>
<rect x="327.82" y="187.93" class="st0" width="90.18" height="54.73"/>
<text transform="matrix(1 0 0 1 111.7646 70.2098)" class="st1 st2 st3">Application</text>
<text transform="matrix(1 0 0 1 297.1799 180.9296)" class="st4 st2 st5">Details </text>
</svg>
